<?xml version="1.0" encoding="UTF-8" standalone="no"?>
<svg
   width="78"
   height="29"
   version="1.1"
   id="svg11"
   sodipodi:docname="apple-podcast.svg"
   inkscape:version="1.1.2 (0a00cf5339, 2022-02-04)"
   xmlns:inkscape="http://www.inkscape.org/namespaces/inkscape"
   xmlns:sodipodi="http://sodipodi.sourceforge.net/DTD/sodipodi-0.dtd"
   xmlns="http://www.w3.org/2000/svg"
   xmlns:svg="http://www.w3.org/2000/svg">
  <sodipodi:namedview
     id="namedview13"
     pagecolor="#ffffff"
     bordercolor="#666666"
     borderopacity="1.0"
     inkscape:pageshadow="2"
     inkscape:pageopacity="0.0"
     inkscape:pagecheckerboard="0"
     showgrid="false"
     inkscape:zoom="17.064103"
     inkscape:cx="49.343351"
     inkscape:cy="14.474831"
     inkscape:window-width="1920"
     inkscape:window-height="1018"
     inkscape:window-x="0"
     inkscape:window-y="0"
     inkscape:window-maximized="1"
     inkscape:current-layer="svg11" />
  <defs
     id="defs5">
    <filter
       id="a"
       x="0"
       y="0"
       width="1"
       height="1">
      <feColorMatrix
         in="SourceGraphic"
         values="0 0 0 0 0.352941 0 0 0 0 0.400000 0 0 0 0 0.541176 0 0 0 1.000000 0"
         id="feColorMatrix2" />
    </filter>
  </defs>
  <g
     transform="translate(-136)"
     filter="url(#a)"
     fill="none"
     fill-rule="evenodd"
     id="g9">
    <path
       d="M149.085 16.359c.181-.001.357.006.526.02l.017-.01c.218.028.65.084 1.05.212.403.125.768.322 1.053.524.276.2.478.408.603.661.126.253.19.554.227 1.046.025.494.025 1.178-.088 2.455a88.802 88.802 0 01-.516 4.338c-.176 1.203-.302 1.729-.465 2.117-.164.401-.378.664-.617.852a2.01 2.01 0 01-.78.363c-.264.063-.503.063-.73.063-.226 0-.44 0-.73-.063-.289-.062-.666-.175-.943-.4a1.534 1.534 0 01-.316-.338c-.485-.494-.699-1.424-1.02-3.649-.532-3.683-.648-5.962-.34-6.685.409-.957 1.517-1.5 3.069-1.506zM149.098 0c3.639 0 6.928 1.4 9.433 4.02 1.906 1.977 2.977 4.069 3.526 6.824.187.918.187 3.419.012 4.45a13.21 13.21 0 01-5.046 8.23c-.947.713-3.265 1.959-3.638 1.959-.137 0-.15-.142-.088-.715.113-.92.225-1.111.748-1.33.835-.348 2.255-1.357 3.127-2.23a11.87 11.87 0 003.128-5.494c.324-1.28.286-4.127-.075-5.445-1.134-4.19-4.56-7.446-8.76-8.316-1.22-.249-3.438-.249-4.672 0-4.248.87-7.762 4.288-8.834 8.59-.286 1.168-.286 4.015 0 5.183.71 2.847 2.555 5.457 4.972 7.01.473.312 1.046.635 1.283.734.524.224.636.41.735 1.33.063.56.05.721-.087.721-.087 0-.723-.273-1.395-.596l-.063-.046c-3.85-1.89-6.317-5.087-7.214-9.34-.224-1.098-.262-3.717-.05-4.724.56-2.704 1.632-4.818 3.414-6.688 2.567-2.7 5.869-4.127 9.544-4.127zm29.381 17.319c1.89 0 3.05 1.25 3.05 3.31 0 2.066-1.153 3.31-3.05 3.31-1.903 0-3.051-1.244-3.051-3.31 0-2.053 1.166-3.31 3.051-3.31zm28.166 0c1.508 0 2.454.669 2.558 1.827h-1.351c-.105-.448-.528-.733-1.201-.733-.655 0-1.148.314-1.148.773 0 .361.301.582.94.728l1.119.256c1.212.273 1.775.797 1.775 1.733 0 1.222-1.12 2.037-2.703 2.037-1.584 0-2.582-.687-2.692-1.845h1.421c.14.472.586.75 1.305.75.725 0 1.23-.32 1.23-.79 0-.361-.273-.588-.876-.722l-1.125-.262c-1.218-.279-1.792-.843-1.792-1.803 0-1.152 1.044-1.95 2.54-1.95zm-13.375 0c1.63 0 2.616.93 2.766 2.269h-1.368c-.134-.617-.61-1.059-1.398-1.059-.986 0-1.572.762-1.572 2.083 0 1.338.591 2.118 1.572 2.118.748 0 1.247-.355 1.398-1.019h1.368c-.156 1.333-1.154 2.229-2.76 2.229-1.909 0-3.034-1.234-3.034-3.328 0-2.066 1.12-3.293 3.028-3.293zm6.705 0c1.63 0 2.546.797 2.546 2.147v4.346h-1.386v-.873h-.099c-.353.617-1.05.977-1.879.977-1.224 0-2.1-.744-2.1-1.908 0-1.152.865-1.815 2.407-1.908L201.1 20v-.535c0-.623-.417-.972-1.195-.972-.661 0-1.113.233-1.247.663h-1.357c.116-1.123 1.166-1.838 2.674-1.838zm-11.235-2.333v8.826h-1.392v-1.007h-.099c-.36.698-1.09 1.111-1.972 1.111-1.607 0-2.61-1.268-2.61-3.293 0-2.013 1.009-3.28 2.61-3.28.87 0 1.59.418 1.926 1.116h.098v-3.473h1.439zm23.903.902v1.6H214v1.152h-1.357v3.124c0 .628.267.907.87.907.203 0 .313-.011.487-.029v1.129c-.209.04-.476.07-.754.07-1.456 0-2.036-.495-2.036-1.728V18.64h-1.003v-1.152h1.003v-1.6h1.433zm-41.037-.472c1.67 0 2.813 1.147 2.813 2.84 0 1.664-1.184 2.804-2.877 2.804h-1.816v2.752h-1.496v-8.396zm29.494 5.557l-1.433.093c-.806.052-1.183.343-1.183.86 0 .536.458.856 1.096.856.87 0 1.52-.564 1.52-1.303v-.506zm-22.621-2.444c-1.003 0-1.578.774-1.578 2.1 0 1.333.575 2.1 1.578 2.1 1.003 0 1.572-.767 1.572-2.1 0-1.326-.574-2.1-1.572-2.1zm7.245.04c-.98 0-1.584.78-1.584 2.06 0 1.286.597 2.06 1.584 2.06.991 0 1.595-.78 1.595-2.06 0-1.268-.61-2.06-1.595-2.06zM151.03 4.532c4.336.963 7.413 5.295 6.815 9.593-.237 1.731-.835 3.153-1.894 4.475-.523.667-1.794 1.787-2.018 1.787-.034 0-.068-.35-.074-.8V18.51l.647-.77c2.442-2.92 2.268-6.996-.399-9.672-1.034-1.041-2.23-1.653-3.775-1.935-.997-.184-1.209-.184-2.255-.012-1.589.258-2.82.872-3.913 1.951-2.679 2.648-2.853 6.746-.41 9.668l.642.77v.945c0 .522-.041.945-.092.945-.05 0-.411-.249-.798-.56l-.052-.017c-1.296-1.032-2.442-2.862-2.915-4.657-.287-1.084-.287-3.145.012-4.226.785-2.919 2.94-5.181 5.93-6.244 1.023-.36 3.29-.441 4.549-.164zm20.181 12.142h-1.485v3.142h1.48c1.067 0 1.693-.559 1.693-1.56 0-1.03-.609-1.582-1.688-1.582zM150.42 9.288a3.12 3.12 0 011.977 2.9 3.116 3.116 0 01-3.119 3.113 3.118 3.118 0 01-2.664-1.495l-.054-.072c-.323-.481-.494-1.069-.5-1.738 0-1.138.635-2.13 1.731-2.71.698-.366 1.931-.366 2.63.002zm37.08-3.86c1.606 0 2.615 1.244 2.615 3.286 0 2.03-.997 3.287-2.598 3.287-.91 0-1.613-.395-1.937-1.07h-.1v3.083h-1.438V5.532h1.387v1.053h.098c.366-.722 1.102-1.158 1.972-1.158zm-7.518 0c1.607 0 2.616 1.244 2.616 3.286 0 2.03-.997 3.287-2.598 3.287-.911 0-1.613-.395-1.938-1.07h-.098v3.083h-1.439V5.532h1.387v1.053h.098c.366-.722 1.102-1.158 1.972-1.158zm17.558-.024c1.81 0 2.894 1.204 2.894 3.211v.466h-4.431v.075c.034 1.06.643 1.722 1.589 1.722.713 0 1.206-.261 1.415-.733h1.363c-.26 1.158-1.322 1.88-2.819 1.88-1.867 0-2.993-1.24-2.993-3.288 0-2.047 1.143-3.333 2.982-3.333zm-4.484-2.333v8.826h-1.438V3.07h1.438zm-20.794.43l2.976 8.396h-1.607l-.708-2.147h-3.08l-.719 2.147h-1.514l2.97-8.396h1.682zm7.274 3.154c-.98 0-1.595.79-1.601 2.06.006 1.273.615 2.059 1.595 2.059.997 0 1.59-.774 1.59-2.06s-.598-2.06-1.584-2.06zm7.517 0c-.98 0-1.595.79-1.601 2.06.006 1.273.615 2.059 1.595 2.059.998 0 1.59-.774 1.59-2.06s-.598-2.06-1.584-2.06zM171.437 5.1h-.098l-1.149 3.462h2.384L171.437 5.1zm26.096 1.449c-.859 0-1.462.617-1.526 1.547h2.988c-.03-.942-.598-1.547-1.462-1.547z"
       fill="#FFF"
       fill-rule="nonzero"
       id="path7" />
  </g>
  <path
     style="fill:#5b678b;stroke:none;stroke-width:0.0586026;fill-opacity:1"
     d="M 7.6344752,19.894188 C 6.6867459,19.182598 5.8876556,18.183318 5.2455907,16.906837 4.6377749,15.698446 4.4335155,14.885141 4.3845953,13.478588 c -0.06621,-1.90366 0.229219,-3.168754 1.0921991,-4.6770483 1.1553545,-2.019299 3.5354229,-3.8036558 5.6483446,-4.2346106 1.093992,-0.2231322 3.175352,-0.1943326 4.143823,0.057338 3.92563,1.0201279 6.794716,4.8267876 6.602302,8.7598319 -0.08429,1.722984 -0.659234,3.407467 -1.627758,4.769063 -0.548484,0.771085 -2.133259,2.273742 -2.293531,2.174688 -0.02579,-0.01594 -0.04689,-0.430481 -0.04689,-0.921203 v -0.892221 l 0.388275,-0.46683 c 1.006206,-1.209779 1.463426,-2.078772 1.785867,-3.39422 0.150372,-0.613471 0.206106,-1.783483 0.116763,-2.451198 C 19.879068,9.8486144 18.281613,7.6443666 16.196777,6.6866316 15.560569,6.394369 14.918895,6.2083943 14.041606,6.0620029 13.279116,5.934768 13.246045,5.9340183 12.541364,6.0279915 10.580963,6.2894224 9.1985299,6.9552124 7.9903611,8.2197884 6.7898113,9.4763898 6.127033,10.996438 6.0273856,12.721772 c -0.1077937,1.866383 0.4895438,3.56416 1.8205483,5.174437 l 0.5029301,0.608455 -8.972e-4,0.856609 c -4.923e-4,0.471135 -0.021495,0.889034 -0.046671,0.928665 -0.03232,0.05088 -0.2288931,-0.06544 -0.6688206,-0.39575 z"
     id="path52" />
  <path
     style="fill:#5b678b;fill-opacity:1;stroke-width:0.0586026"
     d="m 12.518898,15.173512 c -0.971475,-0.261289 -1.862715,-1.082531 -2.237957,-2.062188 -0.195447,-0.510262 -0.225077,-1.400161 -0.06425,-1.929652 0.230791,-0.759829 0.802629,-1.4425926 1.529502,-1.8261974 0.46332,-0.2445152 0.886858,-0.3226555 1.565756,-0.2888723 0.474764,0.023625 0.652186,0.060955 1.002502,0.2109276 0.827117,0.3540948 1.355027,0.8349211 1.717088,1.5639431 0.448837,0.903748 0.445443,1.813522 -0.01016,2.723793 -0.634882,1.268455 -2.160786,1.96911 -3.502479,1.608246 z"
     id="path980" />
  <path
     style="fill:#5b678b;fill-opacity:1;stroke-width:0.0586026"
     d="m 12.556189,28.891265 c -0.185005,-0.04682 -0.43618,-0.136042 -0.558167,-0.198275 -0.273537,-0.139548 -0.723448,-0.612648 -0.886428,-0.932117 -0.293027,-0.574379 -0.538799,-1.768774 -0.852726,-4.144044 -0.2697916,-2.041324 -0.3433739,-2.911775 -0.3492493,-4.13148 -0.00698,-1.44821 0.038786,-1.6366 0.5251633,-2.161946 0.525022,-0.567086 1.253439,-0.850486 2.374336,-0.923765 1.559406,-0.101946 3.15711,0.564416 3.537797,1.475527 0.308733,0.738902 0.249098,2.516806 -0.205366,6.122581 -0.401451,3.185165 -0.592337,3.890149 -1.204911,4.450007 -0.171127,0.156401 -0.437339,0.32946 -0.591582,0.384575 -0.385261,0.137667 -1.351913,0.169514 -1.788867,0.05894 z"
     id="path1019" />
  <path
     style="fill:#5b678b;fill-opacity:1;stroke-width:0.0586026"
     d="M 8.1164538,25.183112 C 5.7674906,24.121021 3.9680995,22.73209 2.6265435,20.945511 1.1950234,19.039124 0.2580014,16.614033 0.08422801,14.365787 -0.02389441,12.96692 0.03569521,11.432955 0.23251886,10.54846 0.82300431,7.8949098 1.985794,5.7503541 3.8387728,3.8973753 5.8873843,1.8487637 8.3358829,0.60134162 11.163787,0.16554398 c 0.935313,-0.1441376 2.932455,-0.1441376 3.867768,0 2.786667,0.42944266 5.215488,1.64764422 7.206147,3.61432082 2.00913,1.9849253 3.14518,4.0797686 3.766007,6.9444022 0.113367,0.523102 0.127318,0.768505 0.129928,2.2855 0.0031,1.82702 -0.02777,2.143595 -0.320833,3.285195 -0.694976,2.707235 -2.424278,5.35366 -4.594764,7.031565 -0.88995,0.68798 -3.176693,1.978846 -3.739828,2.111132 l -0.161157,0.03786 0.001,-0.372619 c 0.0012,-0.451438 0.132387,-1.103163 0.261728,-1.300562 0.05207,-0.07946 0.318173,-0.254691 0.59135,-0.389398 1.104857,-0.544822 2.327578,-1.469812 3.306686,-2.501513 1.424852,-1.501389 2.48485,-3.494924 2.912211,-5.476991 0.08881,-0.411886 0.105557,-0.768691 0.104183,-2.219557 -0.0019,-1.990488 -0.05662,-2.434244 -0.442736,-3.5892769 C 22.763471,5.7725674 19.517664,2.8185042 15.631078,1.962038 14.779534,1.7743881 13.268898,1.6941755 12.136503,1.7764812 10.746516,1.8775095 9.8020232,2.1023863 8.6267637,2.6121242 5.6299859,3.9118978 3.1869965,6.6004139 2.1692809,9.7186008 1.8600861,10.665945 1.7809332,11.210282 1.7448517,12.637413 c -0.052845,2.090198 0.098542,3.126208 0.6666873,4.562437 1.0638677,2.689376 3.0184212,4.858695 5.5685302,6.180397 0.7834441,0.406053 0.8692435,0.547062 0.9373403,1.540489 0.045359,0.661722 0.066753,0.654713 -0.8009557,0.262376 z"
     id="path1058" />
  <path
     style="fill:#5b678b;fill-opacity:1;stroke-width:0.0586026"
     d="M 40.523666,9.7573253 V 5.5379414 h 0.67393 0.673929 v 0.527423 c 0,0.6187021 0.05713,0.6637896 0.337337,0.2662501 0.228276,-0.3238572 0.57045,-0.5760941 1.002035,-0.73866 0.274103,-0.1032469 0.426222,-0.1208357 0.887525,-0.1026205 0.471046,0.0186 0.615347,0.049537 0.937641,0.201025 1.041014,0.4893071 1.579238,1.6568567 1.508933,3.2732737 -0.05921,1.3613403 -0.550597,2.3008673 -1.437843,2.7491353 -0.9939,0.502154 -2.337577,0.241973 -2.864805,-0.554723 -0.295522,-0.446564 -0.31222,-0.377359 -0.31222,1.293998 v 1.523666 h -0.703231 -0.703231 z m 3.740937,0.8662407 C 44.857451,10.318476 45.124344,9.7089736 45.118652,8.6731781 45.114496,7.9169198 44.982823,7.4909416 44.633417,7.1033839 44.337943,6.7756472 44.042353,6.653964 43.541698,6.653964 c -0.492767,0 -0.7861,0.1178775 -1.099825,0.4419701 -0.375084,0.3874785 -0.481219,0.7480722 -0.481878,1.6371783 -5.51e-4,0.7452682 0.004,0.7723611 0.192538,1.1553143 0.219431,0.4456143 0.502186,0.7112873 0.891043,0.8372103 0.36065,0.116788 0.880125,0.07336 1.221027,-0.102071 z"
     id="path1097" />
  <path
     style="fill:#5b678b;fill-opacity:1;stroke-width:0.0586026"
     d="M 48.083396,9.7573253 V 5.5379414 h 0.644628 0.644628 v 0.527423 c 0,0.6290935 0.06205,0.6704563 0.367664,0.2450698 0.391697,-0.5452138 1.010826,-0.8310954 1.799888,-0.8310954 1.122343,0 1.937099,0.6266728 2.323822,1.787378 0.203515,0.6108266 0.258563,1.8050033 0.11481,2.4906085 -0.190678,0.9094017 -0.725552,1.6635027 -1.407148,1.9838907 -0.98306,0.462093 -2.305809,0.186212 -2.817983,-0.587735 -0.08157,-0.123257 -0.187488,-0.224105 -0.235378,-0.224105 -0.0748,0 -0.08707,0.214832 -0.08707,1.523667 v 1.523666 h -0.67393 -0.673929 z M 51.51566,10.725951 C 52.304867,10.490497 52.711404,9.6786486 52.639964,8.4807336 52.569,7.2908213 52.016296,6.6513899 51.058738,6.6513899 c -0.229165,0 -0.493832,0.038888 -0.618471,0.090874 -0.678825,0.283129 -1.063686,1.1395341 -0.993934,2.2117306 0.08863,1.3623825 0.955134,2.1043675 2.069327,1.7719565 z"
     id="path1136" />
  <path
     style="fill:#5b678b;fill-opacity:1;stroke-width:0.0586026"
     d="m 31.677001,11.823065 c 0.0013,-0.02417 0.656082,-1.889932 1.455124,-4.1461304 l 1.452804,-4.1021788 h 0.835706 0.835707 l 1.422405,4.014275 c 0.782323,2.2078512 1.44098,4.0736102 1.463682,4.1461312 l 0.04128,0.131855 H 38.422793 37.66188 l -0.36167,-1.085095 -0.36167,-1.0850939 -1.558155,0.015598 -1.558154,0.015598 -0.354706,1.0694969 -0.354706,1.069496 H 32.39375 c -0.395488,0 -0.718025,-0.01978 -0.716749,-0.04395 z m 4.90757,-3.311044 C 36.570676,8.4717318 36.312231,7.6805973 36.010251,6.7539444 35.687577,5.7637959 35.431632,5.069121 35.389495,5.069121 c -0.06449,0 -1.194904,3.2570914 -1.194904,3.4429169 0,0.056211 0.280741,0.073236 1.207622,0.073236 0.940503,0 1.202034,-0.016203 1.182358,-0.073253 z"
     id="path1175" />
  <path
     style="fill:#5b678b;fill-opacity:1;stroke-width:0.0586026"
     d="M 55.643125,7.4718257 V 3.0766341 h 0.703231 0.703231 v 4.3951916 4.3951913 h -0.703231 -0.703231 z"
     id="path1214" />
  <path
     style="fill:#5b678b;fill-opacity:1;stroke-width:0.0586026"
     d="m 60.689528,11.891598 c -1.00528,-0.270353 -1.690027,-0.987957 -1.980634,-2.0756701 -0.138447,-0.5181976 -0.135353,-1.6446625 0.006,-2.1682945 0.152169,-0.563868 0.469204,-1.1230586 0.830395,-1.4646577 1.077743,-1.0192841 3.03213,-0.994195 4.026546,0.05169 0.529323,0.5567192 0.76081,1.1828804 0.831089,2.248054 l 0.0377,0.5713749 h -2.238631 -2.238632 l 0.03244,0.3143467 c 0.06837,0.6624847 0.496983,1.2735237 1.014429,1.4462027 0.300234,0.100193 0.8642,0.09875 1.228133,-0.0031 0.206784,-0.0579 0.371085,-0.162131 0.571558,-0.362604 l 0.28135,-0.28135 h 0.618889 0.61889 l -0.03966,0.161157 c -0.170572,0.693058 -0.955263,1.353419 -1.862373,1.567292 -0.461826,0.108887 -1.324336,0.106705 -1.737445,-0.0044 z M 62.998986,7.8405867 C 62.877613,7.0312116 62.319751,6.5341848 61.532682,6.5341848 c -0.781146,0 -1.387744,0.5314709 -1.521666,1.3332081 l -0.0416,0.2490609 h 1.535472 1.535471 z"
     id="path1253" />
  <path
     style="fill:#5b678b;fill-opacity:1;stroke-width:0.0586026"
     d="m 62.542666,23.820486 c -0.548143,-0.138352 -1.023768,-0.50159 -1.257308,-0.960214 -0.199964,-0.392688 -0.247419,-1.010121 -0.109542,-1.425231 0.278615,-0.83883 1.110694,-1.244612 2.73027,-1.331477 0.370661,-0.01988 0.802411,-0.05136 0.959445,-0.06995 l 0.285517,-0.03381 -0.02691,-0.46488 c -0.03159,-0.545653 -0.127427,-0.715405 -0.516017,-0.913964 -0.318914,-0.162957 -1.048907,-0.184369 -1.392496,-0.04084 -0.247356,0.103326 -0.540191,0.36173 -0.540191,0.476675 0,0.05906 -0.156632,0.07694 -0.673929,0.07694 -0.392707,0 -0.67393,-0.02354 -0.67393,-0.0564 0,-0.03102 0.05318,-0.19853 0.118169,-0.372239 0.223852,-0.598298 0.905766,-1.112341 1.692172,-1.275598 0.512356,-0.106365 1.661546,-0.04131 2.071883,0.117288 0.442972,0.171212 0.924433,0.612829 1.10592,1.0144 0.138876,0.307284 0.139666,0.321184 0.156651,2.755498 l 0.01707,2.446657 h -0.67635 -0.67635 v -0.439519 c 0,-0.241736 -0.01513,-0.439519 -0.03362,-0.439519 -0.01849,0 -0.162437,0.140949 -0.319883,0.31322 -0.401159,0.438931 -0.850069,0.634021 -1.517523,0.659493 -0.276309,0.01055 -0.601682,-0.0059 -0.72305,-0.03653 z m 1.783035,-1.180229 c 0.530937,-0.228403 0.811038,-0.697983 0.811038,-1.359678 0,-0.321435 -0.0043,-0.330131 -0.161157,-0.328836 -0.410746,0.0034 -1.629207,0.120052 -1.836313,0.17582 -0.679543,0.182982 -0.903616,0.902831 -0.428823,1.377624 0.337083,0.337082 1.014069,0.393693 1.615255,0.13507 z"
     id="path1292" />
  <path
     style="fill:#5b678b;fill-opacity:1;stroke-width:0.0586026"
     d="M 32.260706,19.598443 V 15.43355 l 2.007138,0.02171 c 1.852837,0.02004 2.031915,0.03099 2.329451,0.142488 1.007051,0.377373 1.600111,1.131517 1.756115,2.233101 0.164297,1.160154 -0.381836,2.325492 -1.332263,2.842779 -0.5141,0.279808 -0.868027,0.335391 -2.135638,0.335391 H 33.72577 v 1.37716 1.37716 h -0.732532 -0.732532 z m 3.809166,0.08583 c 0.546241,-0.254998 0.832231,-0.719512 0.842316,-1.368116 0.0086,-0.552078 -0.113647,-0.918151 -0.403279,-1.207783 C 36.13636,16.73583 35.874962,16.672427 34.711574,16.672427 H 33.72577 v 1.587015 1.587014 l 1.040195,-0.01954 c 0.908618,-0.01706 1.073554,-0.03511 1.303907,-0.142643 z"
     id="path1331" />
  <path
     style="fill:#5b678b;fill-opacity:1;stroke-width:0.0586026"
     d="m 42.067243,23.872372 c -1.61588,-0.144488 -2.596387,-1.369664 -2.596387,-3.244273 0,-1.657019 0.773044,-2.804521 2.136958,-3.172086 0.410667,-0.110672 1.397051,-0.102917 1.791392,0.01408 0.983601,0.291834 1.587238,0.885224 1.916281,1.883752 0.127604,0.387232 0.150318,0.565588 0.15482,1.215648 0.0058,0.841617 -0.06059,1.205254 -0.321855,1.762133 -0.524829,1.118662 -1.628656,1.670625 -3.081209,1.540742 z m 0.881758,-1.188243 c 0.40515,-0.121933 0.649798,-0.337868 0.852459,-0.752414 0.505676,-1.034364 0.280001,-2.660633 -0.439223,-3.165154 -0.573192,-0.402082 -1.439189,-0.332062 -1.927064,0.155812 -0.407406,0.407407 -0.524374,0.787889 -0.524374,1.705726 0,0.644657 0.01962,0.811408 0.127558,1.084147 0.338505,0.855338 1.066855,1.225826 1.910644,0.971883 z"
     id="path1370" />
  <path
     style="fill:#5b678b;fill-opacity:1;stroke-width:0.0586026"
     d="m 48.654532,23.816918 c -0.883348,-0.20819 -1.57213,-0.986831 -1.83921,-2.079157 -0.13394,-0.547801 -0.13394,-1.671523 0,-2.219324 0.348859,-1.426789 1.344733,-2.224813 2.652933,-2.125874 0.682048,0.05158 1.296527,0.394141 1.606404,0.895532 0.06833,0.110556 0.148452,0.201011 0.178054,0.201011 0.03148,0 0.05382,-0.717673 0.05382,-1.728775 v -1.728776 h 0.703231 0.703231 v 4.365891 4.36589 h -0.67393 -0.673929 v -0.498122 c 0,-0.574497 -0.06342,-0.630068 -0.293013,-0.256745 -0.408533,0.664291 -1.491984,1.026599 -2.417594,0.808449 z m 1.852806,-1.305713 c 0.535567,-0.313863 0.819349,-0.954569 0.821088,-1.853805 0.0028,-1.430506 -0.697978,-2.2264 -1.84104,-2.091021 -0.739849,0.08762 -1.254745,0.719689 -1.337161,1.641446 -0.112724,1.26073 0.258767,2.132212 1.03185,2.420613 0.352252,0.131409 0.998543,0.07424 1.325263,-0.117233 z"
     id="path1409" />
  <path
     style="fill:#5b678b;fill-opacity:1;stroke-width:0.0586026"
     d="m 56.844478,23.87359 c -1.281988,-0.123647 -2.171622,-0.938691 -2.465267,-2.258573 -0.13366,-0.600773 -0.09192,-1.833515 0.07815,-2.308294 0.352549,-0.984186 0.836223,-1.482198 1.731359,-1.782686 0.360316,-0.120954 0.55384,-0.148251 1.04701,-0.147684 0.902071,10e-4 1.480306,0.188639 2.00501,0.650502 0.290583,0.255781 0.65756,0.91811 0.718816,1.297337 l 0.0355,0.21976 -0.637645,-1.39e-4 -0.637645,-1.4e-4 -0.170521,-0.326337 c -0.484595,-0.927403 -1.933858,-0.958589 -2.523475,-0.0543 -0.238083,0.365145 -0.333931,0.783688 -0.332722,1.452908 0.0018,1.010159 0.305727,1.678429 0.901499,1.982369 0.735892,0.375424 1.750438,0.06025 2.012171,-0.625085 l 0.09967,-0.260981 h 0.644156 0.644156 l -0.03808,0.249061 c -0.02094,0.136984 -0.116611,0.410521 -0.212595,0.60786 -0.463315,0.952552 -1.537488,1.435792 -2.899544,1.304423 z"
     id="path1448" />
  <path
     style="fill:#5b678b;fill-opacity:1;stroke-width:0.0586026"
     d="m 76.556656,23.762312 c -0.61267,-0.103523 -1.077369,-0.451193 -1.230169,-0.920365 -0.04923,-0.151176 -0.07942,-0.857744 -0.09521,-2.228498 l -0.02312,-2.007138 h -0.49401 -0.494011 v -0.556724 -0.556724 h 0.498122 0.498122 v -0.791135 -0.791134 h 0.70323 0.703231 v 0.791134 0.791135 h 0.673929 0.67393 v 0.556724 0.556724 h -0.67393 -0.673929 v 1.730658 c 0,1.888974 0.02117,2.033089 0.32828,2.234313 0.118954,0.07794 0.276598,0.10653 0.590635,0.107113 l 0.428373,7.91e-4 2.87e-4,0.534108 2.87e-4,0.534108 -0.27189,0.03727 c -0.33847,0.04639 -0.787263,0.03761 -1.142153,-0.02236 z"
     id="path1487" />
  <path
     style="fill:#5b678b;fill-opacity:1;stroke-width:0.0586026"
     d="m 70.115889,23.873157 c -1.075106,-0.10578 -1.839291,-0.638185 -2.071243,-1.443029 l -0.08867,-0.307664 h 0.700072 c 0.410821,0 0.700072,0.02337 0.700072,0.05656 0,0.111205 0.372431,0.478103 0.579873,0.571257 0.328445,0.147493 1.134316,0.133784 1.484304,-0.02525 0.617352,-0.280524 0.681278,-0.954408 0.117561,-1.239293 -0.120204,-0.06075 -0.631283,-0.207975 -1.135731,-0.327173 -1.34087,-0.316837 -1.805,-0.573064 -2.114306,-1.167219 -0.196402,-0.377274 -0.183216,-1.01918 0.02985,-1.45305 0.382237,-0.778358 1.161291,-1.162643 2.357008,-1.162643 1.171545,0 1.93209,0.363274 2.309548,1.103153 0.06197,0.121471 0.130995,0.318522 0.153388,0.43789 l 0.04072,0.217034 -0.636499,-1.58e-4 -0.6365,-1.59e-4 -0.117205,-0.216842 c -0.43158,-0.798468 -2.184649,-0.652835 -2.295805,0.190721 -0.02593,0.196789 -0.0053,0.268181 0.121157,0.418418 0.197738,0.234998 0.418156,0.318837 1.503002,0.571691 1.309712,0.305265 1.779191,0.559769 2.044825,1.108496 0.177509,0.366685 0.167872,1.018943 -0.02105,1.4247 -0.424639,0.912022 -1.57601,1.38506 -3.02437,1.242556 z"
     id="path1526" />
</svg>
