<?xml version="1.0" encoding="UTF-8" standalone="no"?>
<svg
   width="125"
   height="18"
   version="1.1"
   id="svg71"
   sodipodi:docname="google-podcasts.svg"
   inkscape:version="1.1.2 (0a00cf5339, 2022-02-04)"
   xmlns:inkscape="http://www.inkscape.org/namespaces/inkscape"
   xmlns:sodipodi="http://sodipodi.sourceforge.net/DTD/sodipodi-0.dtd"
   xmlns="http://www.w3.org/2000/svg"
   xmlns:svg="http://www.w3.org/2000/svg">
  <sodipodi:namedview
     id="namedview73"
     pagecolor="#ffffff"
     bordercolor="#666666"
     borderopacity="1.0"
     inkscape:pageshadow="2"
     inkscape:pageopacity="0.0"
     inkscape:pagecheckerboard="0"
     showgrid="false"
     inkscape:zoom="10.648"
     inkscape:cx="77.29151"
     inkscape:cy="9.0157776"
     inkscape:window-width="1920"
     inkscape:window-height="1018"
     inkscape:window-x="0"
     inkscape:window-y="0"
     inkscape:window-maximized="1"
     inkscape:current-layer="svg71" />
  <defs
     id="defs5">
    <filter
       id="a"
       x="0"
       y="0"
       width="1"
       height="1">
      <feColorMatrix
         in="SourceGraphic"
         values="0 0 0 0 0.352941 0 0 0 0 0.400000 0 0 0 0 0.541176 0 0 0 1.000000 0"
         id="feColorMatrix2" />
    </filter>
  </defs>
  <g
     transform="translate(-255 -6)"
     filter="url(#a)"
     fill="none"
     fill-rule="evenodd"
     id="g69">
    <g
       fill-rule="nonzero"
       id="g67">
      <g
         transform="translate(255 6)"
         id="g61">
        <path
           fill="#FAB908"
           d="M7.72 11.91h2.205V5.558H7.719v3.705z"
           id="path7" />
        <ellipse
           fill="#0066D9"
           cx="1.103"
           cy="8.138"
           rx="1.103"
           ry="1.092"
           id="ellipse9" />
        <ellipse
           fill="#0066D9"
           cx="1.103"
           cy="9.329"
           rx="1.103"
           ry="1.092"
           id="ellipse11" />
        <path
           fill="#0066D9"
           d="M0 8.138h2.205v1.191H0z"
           id="path13" />
        <ellipse
           fill="#4285F4"
           cx="16.541"
           cy="9.329"
           rx="1.103"
           ry="1.092"
           id="ellipse15" />
        <ellipse
           fill="#4285F4"
           cx="16.541"
           cy="8.138"
           rx="1.103"
           ry="1.092"
           id="ellipse17" />
        <path
           fill="#4285F4"
           d="M17.644 9.33H15.44V8.139h2.205z"
           id="path19" />
        <ellipse
           fill="#EA4335"
           cx="4.912"
           cy="11.711"
           rx="1.103"
           ry="1.092"
           id="ellipse21" />
        <ellipse
           fill="#EA4335"
           cx="4.912"
           cy="12.902"
           rx="1.103"
           ry="1.092"
           id="ellipse23" />
        <path
           fill="#EA4335"
           d="M3.809 11.711h2.205v1.191H3.809z"
           id="path25" />
        <ellipse
           fill="#EA4335"
           cx="4.912"
           cy="4.565"
           rx="1.103"
           ry="1.092"
           id="ellipse27" />
        <ellipse
           fill="#EA4335"
           cx="4.912"
           cy="8.436"
           rx="1.103"
           ry="1.092"
           id="ellipse29" />
        <path
           fill="#EA4335"
           d="M3.809 4.565h2.205v3.896H3.809z"
           id="path31" />
        <ellipse
           fill="#34A853"
           cx="12.732"
           cy="5.756"
           rx="1.103"
           ry="1.092"
           id="ellipse33" />
        <ellipse
           fill="#34A853"
           cx="12.732"
           cy="4.565"
           rx="1.103"
           ry="1.092"
           id="ellipse35" />
        <path
           fill="#34A853"
           d="M13.834 5.757H11.63V4.566h2.205z"
           id="path37" />
        <ellipse
           fill="#FAB908"
           cx="8.822"
           cy="2.283"
           rx="1.103"
           ry="1.092"
           id="ellipse39" />
        <ellipse
           fill="#FAB908"
           cx="8.822"
           cy="1.092"
           rx="1.103"
           ry="1.092"
           id="ellipse41" />
        <path
           fill="#FAB908"
           d="M9.925 2.282H7.72v-1.19h2.205z"
           id="path43" />
        <ellipse
           fill="#FAB908"
           cx="8.822"
           cy="16.376"
           rx="1.103"
           ry="1.092"
           id="ellipse45" />
        <ellipse
           fill="#FAB908"
           cx="8.822"
           cy="15.185"
           rx="1.103"
           ry="1.092"
           id="ellipse47" />
        <path
           fill="#FAB908"
           d="M9.925 16.376H7.72v-1.19h2.205z"
           id="path49" />
        <ellipse
           fill="#34A853"
           cx="12.732"
           cy="12.902"
           rx="1.103"
           ry="1.092"
           id="ellipse51" />
        <ellipse
           fill="#34A853"
           cx="12.732"
           cy="9.032"
           rx="1.103"
           ry="1.092"
           id="ellipse53" />
        <path
           fill="#34A853"
           d="M13.834 12.902H11.63v-3.87h2.205z"
           id="path55" />
        <ellipse
           fill="#FAB908"
           cx="8.822"
           cy="5.558"
           rx="1.103"
           ry="1.092"
           id="ellipse57" />
        <ellipse
           fill="#FAB908"
           cx="8.822"
           cy="11.91"
           rx="1.103"
           ry="1.092"
           id="ellipse59" />
      </g>
      <path
         d="M325.95 18.802h-1.349V8.95h3.578c.89 0 1.659.278 2.309.833.65.555.975 1.254.975 2.098 0 .844-.325 1.544-.975 2.099-.65.555-1.42.833-2.31.833h-2.228v3.99zm0-5.201h2.258c.567 0 1.021-.18 1.364-.537.342-.358.513-.752.513-1.184 0-.43-.171-.825-.513-1.183-.343-.358-.797-.537-1.364-.537h-2.258v3.44zm6.631-.73c.694-.688 1.579-1.032 2.654-1.032s1.96.342 2.654 1.025c.694.684 1.04 1.54 1.04 2.567 0 1.027-.346 1.883-1.04 2.566-.694.684-1.579 1.025-2.654 1.025s-1.96-.341-2.654-1.025c-.694-.683-1.04-1.539-1.04-2.566 0-1.028.346-1.88 1.04-2.56zm.997 4.335c.47.44 1.022.66 1.657.66s1.185-.222 1.65-.667c.464-.445.696-1.034.696-1.768s-.232-1.324-.697-1.769a2.304 2.304 0 00-1.649-.667c-.635 0-1.185.223-1.65.667-.464.445-.696 1.035-.696 1.769s.23 1.325.69 1.775zm9.417 1.816c-.929 0-1.73-.344-2.404-1.032-.675-.688-1.012-1.54-1.012-2.56 0-1.018.337-1.87 1.012-2.559.674-.688 1.475-1.032 2.404-1.032.547 0 1.039.11 1.473.33.435.22.76.496.975.826h.06l-.06-.936V8.95h1.35v9.853h-1.29v-.936h-.06c-.215.33-.54.606-.975.826-.434.22-.926.33-1.473.33zm.22-1.156c.635 0 1.175-.22 1.62-.66.445-.44.667-1.032.667-1.775 0-.743-.222-1.335-.667-1.775a2.217 2.217 0 00-1.62-.66c-.626 0-1.163.222-1.613.666-.45.445-.674 1.035-.674 1.769s.225 1.323.674 1.768c.45.445.987.667 1.613.667zm8.258 1.156c-1.075 0-1.96-.341-2.653-1.025-.694-.683-1.041-1.539-1.041-2.566 0-1.028.347-1.883 1.04-2.567.695-.683 1.58-1.025 2.654-1.025.802 0 1.467.184 1.994.55.528.368.914.83 1.159 1.39l-1.232.482c-.371-.844-1.04-1.266-2.009-1.266-.596 0-1.121.23-1.576.688-.454.459-.681 1.041-.681 1.748 0 .706.227 1.289.681 1.747.455.46.98.688 1.576.688 1.007 0 1.701-.422 2.082-1.266l1.203.482c-.245.55-.638 1.012-1.18 1.383-.543.372-1.215.557-2.017.557zm6.397 0c-.762 0-1.4-.206-1.913-.619-.514-.413-.77-.959-.77-1.637 0-.734.303-1.31.909-1.727.606-.418 1.354-.627 2.243-.627.792 0 1.442.138 1.95.413v-.192c0-.496-.18-.893-.542-1.19-.362-.299-.807-.448-1.335-.448-.39 0-.745.087-1.063.262-.317.174-.535.412-.652.715l-1.232-.495c.167-.404.494-.778.983-1.122.488-.344 1.134-.516 1.935-.516.919 0 1.681.252 2.287.757.606.505.91 1.216.91 2.133v4.073h-1.29v-.936h-.06c-.537.771-1.324 1.156-2.36 1.156zm.22-1.156c.557 0 1.063-.194 1.517-.584.455-.39.682-.851.682-1.383-.381-.294-.953-.44-1.715-.44-.655 0-1.149.132-1.481.398-.332.266-.499.578-.499.936 0 .33.152.592.455.785.303.192.65.288 1.04.288zm7.437 1.156c-.801 0-1.463-.183-1.986-.55a3.298 3.298 0 01-1.151-1.376l1.202-.468c.381.844 1.031 1.266 1.95 1.266.42 0 .765-.087 1.034-.261.268-.175.403-.404.403-.688 0-.44-.328-.739-.983-.895l-1.451-.33a3.545 3.545 0 01-1.305-.626c-.41-.308-.616-.723-.616-1.246 0-.596.281-1.08.843-1.452.562-.371 1.23-.557 2.002-.557.635 0 1.202.135 1.7.406.499.27.856.658 1.07 1.163l-1.172.454c-.264-.596-.811-.894-1.642-.894-.401 0-.738.078-1.012.234-.274.155-.41.366-.41.633 0 .385.317.646.953.784l1.422.316c.674.147 1.173.4 1.495.757.323.358.484.762.484 1.211 0 .606-.264 1.11-.792 1.514-.528.404-1.207.605-2.038.605zm6.866-.11c-.753 0-1.327-.188-1.723-.564-.396-.376-.594-.908-.594-1.596v-3.537h-1.26V12.06h1.26V9.995h1.35v2.064h1.759v1.156h-1.76v3.44c0 .734.323 1.101.968 1.101.244 0 .45-.036.616-.11l.469 1.087c-.293.12-.655.18-1.085.18zm4.725.11c-.801 0-1.464-.183-1.987-.55a3.298 3.298 0 01-1.15-1.376l1.202-.468c.381.844 1.031 1.266 1.95 1.266.42 0 .765-.087 1.033-.261.27-.175.404-.404.404-.688 0-.44-.328-.739-.983-.895l-1.451-.33a3.545 3.545 0 01-1.305-.626c-.41-.308-.616-.723-.616-1.246 0-.596.281-1.08.843-1.452.562-.371 1.23-.557 2.001-.557.636 0 1.203.135 1.701.406.499.27.855.658 1.07 1.163l-1.172.454c-.264-.596-.812-.894-1.643-.894-.4 0-.737.078-1.011.234-.274.155-.41.366-.41.633 0 .385.317.646.952.784l1.422.316c.675.147 1.173.4 1.496.757.322.358.484.762.484 1.211 0 .606-.264 1.11-.792 1.514-.528.404-1.207.605-2.038.605z"
         fill="#6A6C6F"
         id="path63" />
      <path
         d="M277.59 13.666c0-2.946 2.494-5.333 5.47-5.333 1.641 0 2.81.64 3.693 1.473l-1.046 1.026a3.732 3.732 0 00-2.648-1.046c-2.165 0-3.858 1.727-3.858 3.87 0 2.144 1.693 3.87 3.858 3.87 1.406 0 2.206-.558 2.72-1.066.42-.417.697-1.016.8-1.829h-3.52V13.18h4.956c.051.264.082.569.082.914 0 1.097-.297 2.448-1.272 3.403-.954.975-2.165 1.493-3.766 1.493-2.975 0-5.468-2.387-5.468-5.323zm14.458-1.473c1.918 0 3.478 1.443 3.478 3.434 0 1.98-1.56 3.433-3.478 3.433-1.92 0-3.479-1.452-3.479-3.433 0-1.991 1.56-3.434 3.479-3.434zm0 5.506c1.046 0 1.96-.853 1.96-2.082 0-1.24-.914-2.083-1.96-2.083-1.057 0-1.96.843-1.96 2.083 0 1.229.913 2.082 1.96 2.082zm7.592-5.506c1.919 0 3.479 1.443 3.479 3.434 0 1.98-1.56 3.433-3.479 3.433-1.918 0-3.478-1.452-3.478-3.433 0-1.991 1.56-3.434 3.478-3.434zm0 5.506c1.047 0 1.96-.853 1.96-2.082 0-1.24-.903-2.083-1.96-2.083s-1.96.843-1.96 2.083c0 1.229.914 2.082 1.96 2.082zm9.317-5.394h1.457v6.166c0 2.54-1.509 3.576-3.294 3.576-1.683 0-2.698-1.118-3.078-2.032l1.324-.548c.236.558.81 1.219 1.744 1.219 1.139 0 1.847-.701 1.847-2.012v-.497h-.052c-.338.416-.995.782-1.826.782-1.734 0-3.324-1.504-3.324-3.424 0-1.94 1.59-3.443 3.324-3.443.831 0 1.488.365 1.826.772h.052v-.559zm-1.744 5.303c1.036 0 1.857-.864 1.846-2.073 0-1.208-.81-2.092-1.846-2.092-1.047 0-1.93.884-1.93 2.092 0 1.2.883 2.073 1.93 2.073zm4.237 1.219V8.74h1.519v10.087h-1.519zm5.695-1.128c.78 0 1.313-.376 1.713-.945l1.18.783c-.39.558-1.303 1.523-2.893 1.523-1.97 0-3.438-1.513-3.438-3.433 0-2.042 1.488-3.434 3.273-3.434 1.796 0 2.678 1.412 2.966 2.184l.154.386-4.638 1.9c.359.68.903 1.036 1.683 1.036zm-.113-4.185c-.78 0-1.857.68-1.816 2.001l3.098-1.27c-.164-.436-.677-.731-1.282-.731z"
         fill="#65696D"
         id="path65" />
    </g>
  </g>
  <path
     style="fill:#5b678b;stroke-width:0.0939144"
     d="M 8.2378658,12.766651 C 7.7613496,12.432886 7.7479339,12.322461 7.7479339,8.7340346 c 0,-3.5884268 0.013416,-3.6988511 0.4899319,-4.0326161 0.2728961,-0.1911439 0.9123143,-0.1876107 1.1895503,0.00657 0.4535399,0.3176717 0.4805478,0.5439448 0.4805478,4.0260432 0,3.4820983 -0.027008,3.7083713 -0.4805478,4.0260433 -0.277236,0.194183 -0.9166542,0.197717 -1.1895503,0.0066 z"
     id="path927" />
  <path
     style="fill:#5b678b;stroke-width:0.0939144"
     d="m 12.191381,13.76841 c -0.164576,-0.103254 -0.344187,-0.271742 -0.399136,-0.374416 -0.06269,-0.117147 -0.09991,-1.03201 -0.09991,-2.45619 V 8.6682945 l 0.319308,-0.3193088 c 0.266398,-0.2663976 0.387004,-0.3189627 0.727837,-0.3172205 0.432118,0.00221 0.732673,0.1770531 0.914064,0.5317452 0.06867,0.134279 0.104906,0.9852798 0.104906,2.4637696 v 2.258637 l -0.258264,0.289024 c -0.340741,0.381322 -0.881893,0.461316 -1.308807,0.193469 z"
     id="path966" />
  <path
     style="fill:#5b678b;stroke-width:0.0939144"
     d="M 16.153268,10.287939 C 16.049962,10.245209 15.859786,10.096568 15.730654,9.9576254 15.511599,9.7219293 15.495868,9.639852 15.495868,8.7326351 c 0,-0.9469205 0.0072,-0.979872 0.274714,-1.2591081 0.503543,-0.5255848 1.300808,-0.4650917 1.661286,0.1260512 0.221087,0.3625578 0.24755,1.6761708 0.0436,2.164293 -0.206427,0.4940488 -0.813267,0.7345758 -1.3222,0.5240678 z"
     id="path1005" />
  <path
     style="fill:#5b678b;stroke-width:0.0939144"
     d="M 12.233525,6.661778 C 11.815161,6.4347765 11.692337,6.0777609 11.692337,5.0887039 c 0,-0.7368994 0.03076,-0.9232873 0.184645,-1.1189238 0.424851,-0.5401101 1.213616,-0.5698797 1.641023,-0.061936 0.223597,0.2657298 0.240447,0.3528906 0.240447,1.2437537 0,1.0520219 -0.07969,1.2661383 -0.564523,1.5168569 -0.338616,0.1751053 -0.629102,0.1730857 -0.960404,-0.00668 z"
     id="path1044" />
  <path
     style="fill:#5b678b;stroke-width:0.0939144"
     d="M 8.3415651,3.1870466 C 8.1773598,3.1035383 7.9766178,2.8953024 7.8954719,2.7243001 7.6935234,2.2987251 7.697052,1.0747555 7.9014693,0.64397804 8.2813251,-0.15650859 9.3864498,-0.13147956 9.7745591,0.68640007 9.8881412,0.92575657 9.9178279,1.2135768 9.8934696,1.8392708 9.8629286,2.6237793 9.8440514,2.6900958 9.5746077,2.9594457 9.2225455,3.3113852 8.7555539,3.3975848 8.3415651,3.1870466 Z"
     id="path1083" />
  <path
     style="fill:#5b678b;stroke-width:0.0939144"
     d="M 0.58814526,10.23561 C 0.17566947,10.003642 0.04691467,9.6416891 0.04730824,8.7152198 0.04758129,8.0724284 0.08684747,7.8245413 0.22402971,7.5995782 0.56235768,7.0447594 1.3854742,6.9446421 1.8185528,7.4056331 2.3567491,7.9785168 2.3420079,9.5719215 1.7937466,10.086986 1.506498,10.356842 0.93007297,10.427902 0.58814526,10.23561 Z"
     id="path1122" />
  <path
     style="fill:#5b678b;stroke-width:0.0939144"
     d="M 4.1864128,9.149425 C 4.0274808,8.990493 3.8956081,8.7580549 3.8933623,8.632896 c -0.00532,-0.2964942 -0.00532,-4.023336 0,-4.2586731 C 3.8956081,4.2748802 4.0056467,4.06501 4.1378926,3.9078446 4.5867654,3.3743897 5.424291,3.4368706 5.7864887,4.0308329 5.9459959,4.2924063 5.9628927,4.5342194 5.9632102,6.5599174 l 3.51e-4,2.2398572 -0.3193088,0.3193088 C 5.3752443,9.3880916 5.2580279,9.4383922 4.9001618,9.4383922 c -0.3491206,0 -0.4762521,-0.05147 -0.713749,-0.2889672 z"
     id="path1161" />
  <path
     style="fill:#5b678b;stroke-width:0.0939144"
     d="m 4.4699849,13.827504 c -0.444131,-0.228248 -0.5913485,-0.552998 -0.6117167,-1.349396 -0.010393,-0.406348 0.014292,-0.861801 0.054855,-1.012117 0.238948,-0.885485 1.4022029,-1.070319 1.8733652,-0.297667 0.2295942,0.376508 0.2517745,1.797598 0.034611,2.217545 -0.249982,0.483412 -0.8733468,0.687169 -1.3511145,0.441635 z"
     id="path1200" />
  <path
     style="fill:#5b678b;stroke-width:0.0939144"
     d="M 8.3002888,17.27995 C 7.9203194,17.07346 7.7479339,16.604591 7.7479339,15.777611 c 0,-0.860582 0.1626845,-1.268064 0.6003732,-1.503774 0.4119063,-0.221827 0.8805489,-0.129782 1.2379851,0.243149 0.2542859,0.26531 0.2771286,0.34831 0.3071774,1.116156 0.024332,0.621755 -0.00545,0.909432 -0.1189105,1.148527 -0.2707166,0.570493 -0.9308385,0.793604 -1.4742703,0.498281 z"
     id="path1239" />
  <path
     style="fill:#5b678b;stroke-width:0.0939144"
     d="M 26.718633,12.76219 C 24.782339,12.242355 23.305873,10.792714 22.807735,8.9223472 22.6356,8.2760255 22.647069,6.9560008 22.830236,6.3327856 23.37881,4.4662887 24.937949,2.9833204 26.817514,2.540304 28.407837,2.1654622 30.188973,2.55297 31.332138,3.5225143 L 31.649136,3.7913674 31.179564,4.262906 30.709992,4.7344446 30.170068,4.3693265 c -1.430529,-0.9673788 -3.466739,-0.7861342 -4.760155,0.4237053 -0.820435,0.7674205 -1.226968,1.7153558 -1.226968,2.8609877 0,1.145632 0.406533,2.0935673 1.226968,2.8609875 1.881587,1.760004 5.16036,1.204783 5.990682,-1.0144522 C 31.761726,8.535346 31.859586,8.593163 29.864763,8.593163 H 28.127348 V 7.8888054 7.1844478 h 2.441773 2.441773 v 0.872455 c 0,0.4804308 -0.06462,1.1205278 -0.143801,1.424544 -0.423073,1.6242842 -1.683358,2.8455642 -3.39707,3.2919292 -0.676728,0.176265 -2.074332,0.170583 -2.75139,-0.01119 z"
     id="path1278" />
  <path
     style="fill:#5b678b;stroke-width:0.0939144"
     d="m 36.043016,12.870891 c -1.478084,-0.461936 -2.394865,-1.704031 -2.394865,-3.2446701 0,-1.3557302 0.666435,-2.4288742 1.879099,-3.0258665 0.574716,-0.2829317 0.699011,-0.3080929 1.521961,-0.3080929 0.822951,0 0.947246,0.025161 1.521962,0.3080929 1.201004,0.5912527 1.86941,1.659098 1.87465,2.9949412 0.0033,0.8345454 -0.1875,1.4338964 -0.652541,2.0500834 -0.850242,1.126588 -2.422657,1.640421 -3.750266,1.225512 z m 2.039253,-1.44694 c 0.849433,-0.500592 1.205905,-1.8447728 0.742882,-2.8012506 -0.559032,-1.154806 -2.05123,-1.4806091 -3.04176,-0.6641309 -0.485941,0.4005539 -0.702392,0.914988 -0.701673,1.6676514 0.0016,1.6812701 1.586696,2.6309501 3.000551,1.7977301 z"
     id="path1317" />
  <path
     style="fill:#5b678b;stroke-width:0.0939144"
     d="M 43.650079,12.876999 C 41.957625,12.321945 40.948828,10.694356 41.271403,9.0392562 41.491426,7.910341 42.177612,7.0359724 43.23111,6.5421119 c 0.461157,-0.2161827 0.653201,-0.2496218 1.425163,-0.2481534 0.764638,0.00145 0.966031,0.036703 1.408716,0.2465614 0.727651,0.3449488 1.229352,0.8160946 1.603133,1.5054969 0.308699,0.5693671 0.322111,0.6351611 0.322111,1.5802041 0,0.9450431 -0.01341,1.0108371 -0.322111,1.5802041 -0.603479,1.11306 -1.559859,1.703865 -2.85637,1.764527 -0.491151,0.02298 -0.907896,-0.01072 -1.161673,-0.09395 z m 1.616638,-1.249744 C 46.260515,11.375279 46.894642,9.9796503 46.521591,8.8654417 46.048378,7.452077 44.200549,7.0291353 43.223542,8.1105654 c -0.432818,0.479078 -0.567807,0.9197012 -0.523263,1.7080122 0.0299,0.5292294 0.08665,0.7162234 0.316635,1.0434564 0.532698,0.757938 1.27831,1.011541 2.249803,0.765221 z"
     id="path1356" />
  <path
     style="fill:#5b678b;stroke-width:0.0939144"
     d="m 61.315052,12.923458 c -1.634339,-0.420527 -2.714457,-1.998874 -2.536043,-3.7058507 0.281316,-2.6914837 3.426476,-3.9374868 5.273436,-2.0891522 0.400314,0.4006116 1.069287,1.510475 0.966658,1.6037401 -0.01671,0.015181 -1.044648,0.4405882 -2.284317,0.9453493 -1.23967,0.5047615 -2.269331,0.9299215 -2.288136,0.9448005 -0.01881,0.01488 0.05307,0.168237 0.15971,0.340793 0.288285,0.466454 0.854587,0.748254 1.500522,0.746681 0.672353,-0.0016 1.007815,-0.129396 1.438621,-0.547888 l 0.341144,-0.331394 0.524751,0.348414 c 0.44096,0.292781 0.510221,0.375564 0.433756,0.518438 -0.144683,0.270344 -0.863027,0.818162 -1.366534,1.042137 -0.5,0.222415 -1.638012,0.319161 -2.163568,0.183932 z M 61.799427,8.918831 C 62.618518,8.5814194 63.304831,8.2892088 63.324566,8.269474 63.427979,8.1660602 63.093262,7.8036395 62.750687,7.648098 62.011939,7.3126791 61.220465,7.502956 60.649509,8.1532387 c -0.372506,0.4242611 -0.662156,1.3790678 -0.418354,1.3790678 0.04346,0 0.74918,-0.2760639 1.568272,-0.6134755 z"
     id="path1395" />
  <path
     style="fill:#5b678b;stroke-width:0.0939144"
     d="M 56.489482,7.7948911 V 2.7704733 h 0.704357 0.704358 v 5.0244178 5.0244179 h -0.704358 -0.704357 z"
     id="path1434" />
  <path
     style="fill:#5b678b;stroke-width:0.0939144"
     d="m 51.08608,15.828196 c -0.317019,-0.103973 -0.746711,-0.339883 -0.975024,-0.535311 -0.409601,-0.350603 -0.946894,-1.019051 -0.946894,-1.178034 0,-0.07883 0.954504,-0.546711 1.106172,-0.542222 0.03727,0.0011 0.184024,0.166401 0.326127,0.36733 0.331161,0.468249 0.923025,0.757637 1.549541,0.757637 0.604882,0 0.928627,-0.121324 1.312973,-0.49204 0.346591,-0.334301 0.45598,-0.626926 0.544534,-1.456683 0.07289,-0.682965 0.01342,-0.720031 -0.501315,-0.312484 -1.319717,1.044899 -3.570535,0.243023 -4.414848,-1.572833 -0.206575,-0.444277 -0.247817,-0.665829 -0.247817,-1.3312495 0,-0.9701152 0.258773,-1.61512 0.94029,-2.343717 1.043437,-1.1155186 2.691064,-1.3589222 3.793395,-0.5603977 0.390221,0.2826752 0.474494,0.2702713 0.474494,-0.06984 0,-0.2088864 0.03102,-0.2191335 0.663371,-0.2191335 h 0.66337 l -0.02945,3.6391811 -0.02945,3.6391816 -0.273217,0.591705 c -0.327487,0.709237 -0.98476,1.340859 -1.629093,1.565516 -0.715213,0.24937 -1.663289,0.271122 -2.327162,0.05339 z m 2.044673,-4.44565 c 1.286754,-0.707454 1.272695,-3.0686676 -0.02219,-3.7264563 -0.536177,-0.272373 -0.892605,-0.3106703 -1.431999,-0.1538643 -0.868855,0.252583 -1.404538,1.0256831 -1.403864,2.026063 0.0011,1.6298856 1.4988,2.6015706 2.858051,1.8542576 z"
     id="path1473" />
  <path
     style="fill:#5b678b;stroke-width:0.0939144"
     d="m 121.37788,12.917652 c -0.84963,-0.154252 -1.85445,-0.866498 -2.24075,-1.58831 -0.0937,-0.175141 -0.0794,-0.213245 0.10684,-0.284132 0.11829,-0.04503 0.37359,-0.148133 0.56732,-0.229129 0.34988,-0.146282 0.35311,-0.145574 0.48412,0.106232 0.38258,0.735293 1.35289,1.142242 2.29645,0.963135 0.77894,-0.147857 1.18172,-0.672707 0.94844,-1.235892 -0.15387,-0.37148 -0.58359,-0.577196 -1.72564,-0.8260998 -0.99775,-0.2174531 -1.9208,-0.6431637 -2.2204,-1.0240424 -0.2824,-0.3590156 -0.39415,-0.8947209 -0.27723,-1.3289528 0.14452,-0.5367087 0.49054,-0.8951664 1.20238,-1.2456051 0.5755,-0.2833147 0.69849,-0.3081735 1.52031,-0.3072829 0.76266,8.264e-4 0.97022,0.036503 1.41126,0.2425815 0.51079,0.2386635 1.03777,0.6832011 1.22531,1.0336141 0.0794,0.1483007 0.0583,0.194806 -0.1186,0.262148 -0.1183,0.045026 -0.36542,0.1447197 -0.54917,0.2215421 -0.32698,0.1367121 -0.33714,0.1343314 -0.4786,-0.1121555 -0.22754,-0.3964651 -0.77283,-0.6127376 -1.53896,-0.610386 -1.04547,0.00321 -1.65689,0.5031766 -1.37417,1.1236752 0.15762,0.3459346 0.4445,0.4760388 1.65969,0.7526922 1.11087,0.2529013 1.71072,0.4815474 2.05263,0.7823998 0.48146,0.4236386 0.67039,1.3730706 0.40137,2.0169326 -0.1701,0.407094 -0.82231,0.955233 -1.35092,1.135348 -0.53849,0.183483 -1.44724,0.252347 -2.00168,0.151687 z"
     id="path1512" />
  <path
     style="fill:#5b678b;stroke-width:0.0939144"
     d="m 116.90954,12.809013 c -0.92176,-0.115843 -1.52061,-0.63655 -1.71628,-1.492334 -0.0531,-0.232438 -0.0977,-1.257278 -0.0989,-2.2774228 l -0.002,-1.8548084 h -0.61045 -0.61044 V 6.6209617 6.0574756 h 0.61044 0.61045 V 5.0713749 4.0852742 h 0.6574 0.6574 v 0.9861007 0.9861007 h 0.84523 0.84523 v 0.5634861 0.5634861 h -0.84523 -0.84523 v 2.0263827 2.0263825 l 0.28313,0.28313 c 0.25731,0.257316 0.32998,0.280205 0.79696,0.251041 l 0.51384,-0.03209 0.19567,0.455212 c 0.10761,0.250366 0.17098,0.479894 0.14082,0.510061 -0.10362,0.103613 -0.94474,0.165145 -1.42772,0.104446 z"
     id="path1551" />
  <path
     style="fill:#5b678b;stroke-width:0.0939144"
     d="m 109.92675,12.947023 c -0.53792,-0.101423 -0.9188,-0.257136 -1.36999,-0.560082 -0.51626,-0.346639 -1.1459,-1.129172 -1.0126,-1.258486 0.0449,-0.04358 0.2974,-0.160573 0.56104,-0.259981 l 0.47936,-0.180742 0.17643,0.327609 c 0.67786,1.258717 3.23187,1.196462 3.23187,-0.07878 0,-0.548168 -0.33983,-0.773028 -1.61705,-1.0699567 -0.58273,-0.1354744 -1.27849,-0.3523304 -1.54613,-0.4819022 -0.8769,-0.4245204 -1.26317,-1.0825396 -1.11245,-1.8950357 0.0908,-0.4893772 0.80226,-1.1652101 1.46926,-1.3956583 0.67694,-0.2338821 1.83663,-0.2338821 2.51357,0 0.52841,0.1825627 1.41977,0.9325602 1.41977,1.1945948 0,0.084163 -0.20244,0.2074999 -0.51492,0.3137158 l -0.51492,0.1750275 -0.19773,-0.25137 c -0.26109,-0.3319316 -0.61346,-0.505491 -1.17842,-0.5804349 -0.86689,-0.1149979 -1.72624,0.2840112 -1.72624,0.8015249 0,0.6160968 0.1885,0.7377204 1.65715,1.0692499 1.38927,0.3136076 1.75601,0.476227 2.19262,0.9722442 1.144,1.2996527 0.0383,3.0313117 -2.01844,3.1612087 -0.36157,0.02284 -0.76305,0.0216 -0.89218,-0.0027 z"
     id="path1590" />
  <path
     style="fill:#5b678b;stroke-width:0.0939144"
     d="m 102.07616,12.880569 c -1.2512,-0.318194 -1.88958,-1.13774 -1.80432,-2.316378 0.0924,-1.2771991 1.26851,-2.0649423 3.08302,-2.0649423 0.71601,0 1.2513,0.097071 1.80573,0.3274592 0.13548,0.056294 0.16435,0.018097 0.16435,-0.2173833 0,-0.6074253 -0.42577,-1.2348965 -1.00656,-1.4834006 -0.73695,-0.3153214 -2.01876,-0.068986 -2.44221,0.4693398 -0.23407,0.2975779 -0.25165,0.2985402 -0.85709,0.046931 l -0.48042,-0.1996536 0.16268,-0.2790709 c 0.20976,-0.3598558 0.73277,-0.7740561 1.30566,-1.0340332 0.3563,-0.1616916 0.63479,-0.2065767 1.29879,-0.2093292 1.45245,-0.00602 2.4256,0.4996629 2.92715,1.5210525 l 0.26593,0.5415595 0.0293,2.3713371 0.0293,2.371337 h -0.6163 -0.61631 v -0.489125 -0.489125 l -0.39913,0.390717 c -0.72778,0.712426 -1.8345,1.000873 -2.84965,0.742708 z m 2.22435,-1.33063 c 0.63113,-0.446472 0.95969,-0.915031 0.96927,-1.382283 0.008,-0.3987432 0.006,-0.4012918 -0.46137,-0.5608031 -0.65186,-0.2224478 -1.85334,-0.2183267 -2.35174,0.00807 -0.81954,0.3722667 -1.1345,1.1756121 -0.68496,1.7471081 0.31087,0.395199 0.69109,0.524142 1.45772,0.494354 0.57428,-0.02231 0.73405,-0.06803 1.07108,-0.306443 z"
     id="path1629" />
  <path
     style="fill:#5b678b;stroke-width:0.0939144"
     d="M 95.712856,12.908625 C 94.989199,12.787201 94.308268,12.398328 93.734927,11.77905 93.312779,11.32308 93.174631,11.088547 93.011134,10.550267 92.609291,9.2272862 92.922691,7.8622348 93.838546,6.94638 c 1.3143,-1.3142993 3.586516,-1.42427 4.936556,-0.2389194 0.420888,0.3695447 0.781395,0.9306285 0.668625,1.0406312 -0.147499,0.1438786 -1.068445,0.469176 -1.068445,0.3773969 0,-0.1720757 -0.596101,-0.7660336 -0.949989,-0.9465738 -0.429827,-0.2192814 -1.435857,-0.2474244 -1.900767,-0.053173 -0.470787,0.1967075 -0.956326,0.6692095 -1.195399,1.1633024 -0.330356,0.6827491 -0.305094,1.6923448 0.05909,2.3614667 0.438552,0.805764 1.143439,1.229654 2.044793,1.229654 0.856382,0 1.600876,-0.369756 1.896831,-0.94207 l 0.142188,-0.27496 0.486793,0.191876 c 0.267736,0.105532 0.521339,0.213227 0.563562,0.239322 0.11893,0.0735 -0.213373,0.576203 -0.644713,0.975307 -0.505724,0.467929 -0.987229,0.70825 -1.673065,0.835034 -0.618067,0.114256 -0.831005,0.11482 -1.491747,0.004 z"
     id="path1668" />
  <path
     style="fill:#5b678b;stroke-width:0.0939144"
     d="m 87.314286,12.912099 c -0.963486,-0.201172 -1.893923,-0.973855 -2.353692,-1.954628 -0.223465,-0.476693 -0.249709,-0.642075 -0.24851,-1.566036 0.0012,-0.8945138 0.03106,-1.093262 0.222976,-1.4819721 0.738984,-1.4967829 2.3457,-2.294509 3.846837,-1.9099355 0.590486,0.1512756 1.391112,0.6173142 1.486198,0.8651058 0.02786,0.072592 0.09895,0.1320308 0.157993,0.1320856 0.07808,7.26e-5 0.09953,-0.5504108 0.07869,-2.0191585 L 90.476125,2.958302 h 0.615619 0.615619 v 4.8835462 4.8835458 h -0.563486 -0.563486 v -0.417071 c 0,-0.521829 -0.101595,-0.590934 -0.358303,-0.243718 -0.460639,0.623049 -1.930705,1.051507 -2.907802,0.847494 z m 1.675698,-1.125998 c 0.46779,-0.129951 1.064965,-0.670365 1.317707,-1.192461 0.269078,-0.555841 0.292591,-1.6602714 0.04759,-2.2352628 -0.370601,-0.8697572 -1.133426,-1.357633 -2.122748,-1.357633 -0.965865,0 -1.711987,0.4552142 -2.131712,1.3005727 -0.254003,0.5115829 -0.234331,1.8099841 0.03502,2.3110051 0.254241,0.472923 0.731623,0.934133 1.157553,1.118337 0.378588,0.163729 1.209092,0.190869 1.696596,0.05544 z"
     id="path1707" />
  <path
     style="fill:#5b678b;stroke-width:0.0939144"
     d="M 79.345282,12.872472 C 78.589888,12.700965 78.249523,12.516541 77.660798,11.959749 76.690921,11.04248 76.352002,9.6327647 76.779113,8.2924194 76.968514,7.698046 77.079359,7.5248836 77.61408,6.9880304 c 0.830593,-0.8339047 1.398854,-1.0619081 2.635732,-1.0575343 1.221173,0.00432 1.816548,0.2366316 2.590863,1.0109473 0.736994,0.7369934 1.001285,1.3774728 1.010978,2.4499916 0.008,0.889516 -0.174553,1.492891 -0.646399,2.136023 -0.840723,1.145914 -2.377835,1.681523 -3.859972,1.345014 z m 1.67175,-1.089068 c 0.541491,-0.150399 1.256223,-0.853267 1.4447,-1.42072 0.192281,-0.5789041 0.150617,-1.6656354 -0.08096,-2.1117337 -0.420966,-0.8109218 -1.184446,-1.2496023 -2.177916,-1.2513874 -0.558699,-0.001 -0.73054,0.040766 -1.14455,0.27821 -0.837503,0.4803273 -1.20255,1.1563945 -1.191996,2.2075765 0.01716,1.7093296 1.465912,2.7660096 3.150722,2.2980546 z"
     id="path1746" />
  <path
     style="fill:#5b678b;stroke-width:0.0939144"
     d="m 69.637491,7.8329283 v -4.892466 l 2.136551,0.037958 c 2.473494,0.043945 2.844992,0.1336402 3.686272,0.8900228 0.634928,0.5708552 0.86402,1.0380625 0.918578,1.8733393 0.03742,0.5728259 0.0097,0.7448807 -0.190449,1.1820512 C 75.879367,7.598943 75.380512,8.0822027 74.623272,8.4400725 74.023355,8.7235918 73.958024,8.7335313 72.4784,8.7663971 l -1.526108,0.033898 v 1.9625499 1.962549 h -0.657401 -0.6574 z m 4.466495,-0.4106565 c 0.639323,-0.3185883 0.980537,-0.8512307 0.980537,-1.5306405 0,-0.5546836 -0.08782,-0.7813186 -0.457568,-1.1808195 C 74.157203,4.2032589 73.933527,4.1425696 72.384485,4.1023709 L 70.952292,4.0652039 V 5.8596114 7.654019 h 1.343318 c 1.239926,0 1.379113,-0.017837 1.808376,-0.2317472 z"
     id="path1785" />
</svg>
