<?xml version="1.0" encoding="UTF-8" standalone="no"?>
<svg
   width="129"
   height="26"
   version="1.1"
   id="svg23"
   sodipodi:docname="pocket-casts.svg"
   inkscape:version="1.1.2 (0a00cf5339, 2022-02-04)"
   xmlns:inkscape="http://www.inkscape.org/namespaces/inkscape"
   xmlns:sodipodi="http://sodipodi.sourceforge.net/DTD/sodipodi-0.dtd"
   xmlns:xlink="http://www.w3.org/1999/xlink"
   xmlns="http://www.w3.org/2000/svg"
   xmlns:svg="http://www.w3.org/2000/svg">
  <sodipodi:namedview
     id="namedview25"
     pagecolor="#ffffff"
     bordercolor="#666666"
     borderopacity="1.0"
     inkscape:pageshadow="2"
     inkscape:pageopacity="0.0"
     inkscape:pagecheckerboard="0"
     showgrid="false"
     inkscape:zoom="10.317829"
     inkscape:cx="64.54846"
     inkscape:cy="12.987228"
     inkscape:window-width="1920"
     inkscape:window-height="1018"
     inkscape:window-x="0"
     inkscape:window-y="0"
     inkscape:window-maximized="1"
     inkscape:current-layer="svg23" />
  <defs
     id="defs6">
    <filter
       id="a"
       x="0"
       y="0"
       width="1"
       height="1">
      <feColorMatrix
         in="SourceGraphic"
         values="0 0 0 0 0.352941 0 0 0 0 0.400000 0 0 0 0 0.541176 0 0 0 1.000000 0"
         id="feColorMatrix2" />
    </filter>
    <path
       id="b"
       d="M0 0h7.858v11.143H0z" />
  </defs>
  <g
     transform="translate(-407 -2)"
     filter="url(#a)"
     fill="none"
     fill-rule="evenodd"
     id="g21">
    <path
       d="M419.873 1.996c7.11 0 12.874 5.783 12.874 12.915 0 7.134-5.763 12.917-12.874 12.917-7.11 0-12.873-5.783-12.873-12.917 0-7.132 5.763-12.915 12.873-12.915zm.12 2.87c-5.596 0-10.132 4.551-10.132 10.165 0 5.614 4.536 10.166 10.132 10.166v-2.541c-4.197 0-7.599-3.414-7.599-7.625 0-4.21 3.402-7.623 7.599-7.623s7.598 3.413 7.598 7.623h2.533c0-5.614-4.536-10.165-10.131-10.165zm0 4.067c-3.358 0-6.08 2.73-6.08 6.098 0 3.369 2.722 6.1 6.08 6.1v-2.219a3.875 3.875 0 01-3.869-3.88 3.875 3.875 0 013.869-3.882 3.875 3.875 0 013.868 3.881h2.21c0-3.368-2.72-6.098-6.078-6.098z"
       fill="#E86357"
       fill-rule="nonzero"
       id="path8" />
    <path
       d="M441.016 22.105V8.04h3.806c3.424 0 5.267 1.628 5.267 4.884 0 3.637-2.183 5.143-5.187 5.143h-.782v4.038h-3.104zm3.765-6.57c1.483 0 2.224-.804 2.224-2.512 0-1.748-.741-2.411-2.183-2.411h-.722v4.923h.681M454.635 22.307c-2.365 0-4.247-1.829-4.247-5.385 0-3.597 1.902-5.446 4.266-5.446 2.344 0 4.247 1.85 4.247 5.405 0 3.578-1.903 5.426-4.266 5.426m-.021-8.36c-.901 0-1.462.966-1.462 2.934 0 1.99.581 2.974 1.502 2.974.901 0 1.482-.984 1.482-2.953 0-1.99-.601-2.954-1.522-2.954M464.006 22.267c-2.784 0-4.427-1.95-4.427-5.345 0-3.316 1.683-5.406 4.587-5.406.922 0 1.622.18 2.303.443l-.441 2.532c-.48-.222-1.04-.403-1.622-.403-1.342 0-2.043 1.166-2.043 2.793 0 1.769.701 2.814 2.084 2.814.52 0 1.06-.161 1.641-.382l.441 2.432a6.654 6.654 0 01-2.523.522M470.474 17.123v4.984h-2.905V7.618h2.905v8.58l2.363-4.5h3.184l-2.824 4.982 2.905 5.427h-3.225l-2.403-4.984"
       fill="#231F20"
       fill-rule="nonzero"
       id="path10" />
    <path
       d="M475.718 16.941c0-3.576 1.824-5.465 4.128-5.465 2.443 0 4.086 1.868 4.086 5.526v.944h-5.51c.102 1.427.883 2.13 2.164 2.13.762 0 1.663-.241 2.484-.622l.52 2.05a7.528 7.528 0 01-3.304.763c-2.544 0-4.568-1.346-4.568-5.326zm5.53-.743c-.06-1.567-.522-2.49-1.402-2.49-.903 0-1.363.963-1.423 2.49h2.825M485.491 18.99v-4.902h-1.12v-2.391h1.12V8.965h2.885v2.732h2.203v2.391h-2.203v4.482c0 .863.46 1.225 1.241 1.225.341 0 .642-.06.962-.14v2.37c-.441.14-1.062.222-1.782.222-2.203 0-3.306-.904-3.306-3.256M500.331 22.267c-3.645 0-5.93-2.33-5.93-7.174 0-4.661 2.345-7.214 5.95-7.214 1.202 0 2.204.241 2.985.543l-.481 2.854c-.62-.261-1.342-.503-2.203-.503-1.922 0-3.065 1.527-3.065 4.28 0 2.833 1.082 4.32 3.125 4.32.78 0 1.522-.2 2.163-.482l.5 2.773a7.978 7.978 0 01-3.044.603M506.698 22.247c-1.622 0-2.763-1.045-2.763-3.296 0-1.005.28-1.847.821-2.371.58-.603 1.442-.904 2.743-.904.562 0 1.122.08 1.603.181v-.583c0-.884-.401-1.366-1.482-1.366-.841 0-1.743.24-2.544.583l-.54-2.21c1.041-.422 2.263-.744 3.604-.744 2.624 0 3.806 1.124 3.806 3.516v5.205l.22 1.849h-2.523l-.36-.905c-.762.663-1.503 1.045-2.585 1.045m2.404-2.35v-2.473c-.28-.06-.601-.08-.941-.08-.601 0-.941.12-1.182.341-.22.242-.34.603-.34 1.126 0 1.044.46 1.466 1.26 1.466.402 0 .822-.16 1.203-.38M516.772 22.287a8.059 8.059 0 01-3.827-.965l.581-2.35c1.103.602 2.203.964 3.205.964.742 0 1.142-.321 1.142-.764 0-.441-.24-.643-1.642-1.205-1.943-.784-2.905-1.527-2.905-3.276 0-1.93 1.322-3.175 3.646-3.175 1.18 0 2.263.282 3.244.765l-.58 2.35c-.902-.462-1.823-.764-2.664-.764-.62 0-.962.262-.962.684 0 .402.22.602 1.603 1.166 2.184.863 2.944 1.667 2.944 3.315 0 2.17-1.522 3.255-3.785 3.255M522.218 18.99v-4.902h-1.122v-2.391h1.122V8.965h2.884v2.732h2.203v2.391h-2.203v4.482c0 .863.461 1.225 1.241 1.225.341 0 .641-.06.962-.14v2.37c-.44.14-1.062.222-1.783.222-2.203 0-3.304-.904-3.304-3.256"
       fill="#231F20"
       fill-rule="nonzero"
       id="path12" />
    <g
       transform="translate(527.939 11.28)"
       id="g19">
      <mask
         id="c"
         fill="#fff">
        <use
           xlink:href="#b"
           id="use14" />
      </mask>
      <path
         d="M4.072 11.006a8.059 8.059 0 01-3.826-.965l.58-2.35c1.103.602 2.204.965 3.205.965.741 0 1.143-.322 1.143-.764s-.241-.644-1.643-1.206C1.588 5.903.627 5.16.627 3.411.627 1.48 1.949.236 4.272.236c1.181 0 2.263.281 3.244.764l-.58 2.35c-.902-.462-1.823-.764-2.664-.764-.62 0-.961.263-.961.685 0 .401.22.602 1.602 1.165 2.183.863 2.943 1.667 2.943 3.315 0 2.17-1.52 3.255-3.784 3.255"
         fill="#231F20"
         fill-rule="nonzero"
         mask="url(#c)"
         id="path17" />
    </g>
  </g>
  <path
     style="fill:#5b678b;stroke-width:0.0969196"
     d="M 11.921112,25.717781 C 7.4719502,25.429332 3.4152466,22.686704 1.3642982,18.580604 0.25896991,16.367681 -0.17913178,13.58484 0.18732119,11.104395 1.3612103,3.1585773 9.2728324,-1.780819 16.864012,0.69277637 c 0.977124,0.31839713 2.261205,0.94770803 3.168759,1.55296593 0.938826,0.6261138 2.522689,2.1620638 3.201027,3.1041935 2.2419,3.1137253 2.991386,6.9994872 2.063343,10.6975422 -0.898538,3.580486 -3.310907,6.612973 -6.607913,8.30653 -2.128221,1.093192 -4.273648,1.525495 -6.768116,1.363773 z m 1.114575,-3.813949 v -1.308415 h -0.391764 c -0.215471,0 -0.727933,-0.06909 -1.138806,-0.153532 C 6.1443703,19.340143 3.6958383,13.0848 6.879153,8.6237837 7.6851173,7.4943258 8.9285571,6.5175613 10.229197,5.9922097 c 1.005306,-0.4060613 1.857655,-0.5403159 3.097249,-0.4878515 2.029775,0.085908 3.523933,0.7565872 5.006417,2.2472193 0.776202,0.7804677 0.948212,1.0185406 1.373418,1.9008945 0.513754,1.066097 0.792216,2.083167 0.792216,2.89352 v 0.489695 h 1.340619 1.340619 L 23.143276,12.4784 C 22.866762,8.2516584 20.200576,4.7102478 16.293165,3.3796136 13.551942,2.4461141 10.337385,2.7661917 7.8545444,4.2198581 4.7117194,6.0599354 2.8616749,9.326529 2.8616749,13.035687 c 0,2.475701 0.6462207,4.345849 2.2078536,6.389477 1.6571437,2.168619 4.7191427,3.740462 7.3604115,3.778385 l 0.605747,0.0087 z m -0.02115,-3.90076 -0.02731,-1.13855 -0.555432,-0.06923 C 10.412625,16.543631 8.8637208,14.438974 9.2336705,12.449671 9.5444019,10.778799 10.637463,9.6361529 12.245918,9.3007806 14.362817,8.8593944 16.5063,10.381754 16.772957,12.516006 l 0.06493,0.519681 h 1.156681 1.15668 L 19.087254,12.42994 C 19.013849,11.735118 18.639775,10.528618 18.343521,10.03118 17.450759,8.5321478 16.020902,7.4422181 14.466247,7.0756712 13.683906,6.891216 12.284416,6.8926708 11.494967,7.0787601 9.4292905,7.5656826 7.6172369,9.3758856 7.0568106,11.512385 c -0.210364,0.801965 -0.2044536,2.259361 0.012467,3.074016 0.4265147,1.601798 1.7293435,3.215642 3.1557414,3.909089 0.875215,0.425489 1.61626,0.631173 2.304917,0.639755 l 0.511903,0.0064 -0.02731,-1.138551 z"
     id="path879" />
  <path
     style="fill:#5b678b;stroke-width:0.0969196"
     d="M 34.067243,13.024329 V 6.034758 l 2.544139,0.049803 c 1.975943,0.03868 2.672835,0.086289 3.120381,0.2131693 2.220505,0.6295215 3.284624,2.1254209 3.275452,4.6045137 -0.0063,1.715302 -0.335747,2.710918 -1.203993,3.639075 -0.915683,0.978868 -1.866165,1.356517 -3.689586,1.465959 l -1.041885,0.06253 v 1.972044 1.972043 h -1.502254 -1.502254 z m 4.914355,0.292477 c 0.801566,-0.388032 1.234261,-1.646891 1.016913,-2.958549 C 39.79239,9.1143607 39.242277,8.6582614 37.871337,8.5946153 l -0.799586,-0.037121 v 2.5440767 2.544077 l 0.745441,-0.06301 c 0.441885,-0.03735 0.916052,-0.145603 1.164406,-0.265829 z"
     id="path918" />
  <path
     style="fill:#5b678b;stroke-width:0.0969196"
     d="m 47.026933,20.193851 c -1.5218,-0.20872 -2.650722,-1.222073 -3.236703,-2.905354 -0.328914,-0.944837 -0.421623,-2.947049 -0.187522,-4.049854 0.329775,-1.5535 1.175852,-2.739892 2.374938,-3.3301997 0.595287,-0.2930586 0.7028,-0.313402 1.656304,-0.313402 0.939996,0 1.0694,0.023554 1.655656,0.3013586 1.174478,0.5565411 1.981775,1.6392741 2.36131,3.1669491 0.208502,0.839245 0.218776,2.709877 0.0196,3.568505 -0.580433,2.502185 -2.368785,3.873994 -4.643583,3.561997 z m 1.186029,-2.455213 c 0.772227,-0.399334 1.164137,-2.211944 0.870105,-4.024294 -0.188734,-1.163314 -0.726466,-1.800759 -1.504841,-1.783888 -0.785016,0.01702 -1.247003,0.695634 -1.417771,2.082586 -0.131642,1.069184 0.006,2.37105 0.32161,3.042545 0.350014,0.744622 1.065689,1.027044 1.730897,0.683051 z"
     id="path957" />
  <path
     style="fill:#5b678b;stroke-width:0.0969196"
     d="m 123.37866,20.071005 c -0.31983,-0.07283 -0.93629,-0.269351 -1.3699,-0.436709 l -0.78839,-0.304286 0.27096,-1.070944 c 0.14903,-0.58902 0.29018,-1.090159 0.31366,-1.113642 0.0235,-0.02348 0.35244,0.08911 0.73102,0.250211 1.9933,0.848223 3.60486,0.735196 3.60486,-0.252826 0,-0.388839 -0.3379,-0.671575 -1.25995,-1.05426 -2.5214,-1.046468 -3.2372,-1.795861 -3.23999,-3.39208 -0.003,-1.694836 0.98535,-2.772817 2.82109,-3.0770081 0.48214,-0.079893 0.87891,-0.07848 1.5438,0.0055 0.83939,0.1060175 2.08202,0.4729521 2.2833,0.6742331 0.0715,0.07147 -0.34115,2.087387 -0.45734,2.23443 -0.0135,0.01704 -0.19358,-0.05527 -0.40025,-0.160706 -0.61027,-0.311338 -1.41659,-0.506929 -2.11181,-0.512264 -0.54634,-0.0042 -0.68789,0.03012 -0.88388,0.214238 -0.29401,0.27621 -0.30044,0.670225 -0.0153,0.937806 0.11994,0.11255 0.52336,0.342024 0.8965,0.509942 0.37315,0.167918 1.03082,0.474384 1.46149,0.681036 1.46465,0.702778 2.06958,1.674899 1.9476,3.129791 -0.10531,1.25614 -0.7652,2.158634 -1.89914,2.59733 -0.68834,0.266302 -2.56037,0.342421 -3.44834,0.140211 z"
     id="path996" />
  <path
     style="fill:#5b678b;stroke-width:0.0969196"
     d="m 117.43967,20.11121 c -0.62644,-0.133142 -1.33943,-0.563659 -1.63152,-0.985144 -0.46549,-0.671706 -0.52227,-1.130693 -0.52227,-4.221568 v -2.838007 h -0.58152 -0.58152 V 10.903456 9.7404207 h 0.58152 0.58152 V 8.3835462 7.0266717 h 1.40533 1.40533 v 1.3568745 1.3568745 h 1.06612 1.06612 v 1.1630353 1.163035 h -1.06612 -1.06612 v 2.562965 c 0,2.525824 0.003,2.566677 0.2203,2.81907 0.26379,0.306677 0.90088,0.451599 1.50003,0.341218 l 0.41191,-0.07589 v 1.138718 c 0,1.097179 -0.008,1.141069 -0.21807,1.20318 -0.37252,0.110117 -2.13498,0.148132 -2.57104,0.05546 z"
     id="path1035" />
  <path
     style="fill:#5b678b;stroke-width:0.0969196"
     d="m 108.06536,20.046868 c -0.37314,-0.07979 -0.99446,-0.276491 -1.38072,-0.437121 -0.61467,-0.255618 -0.6957,-0.318152 -0.64953,-0.501239 0.44809,-1.776742 0.50561,-1.952492 0.63335,-1.935222 0.0753,0.01018 0.54453,0.176151 1.04269,0.368818 1.18044,0.45655 2.31499,0.558947 2.79883,0.252605 0.35596,-0.225376 0.48798,-0.595449 0.33342,-0.93467 -0.11194,-0.245686 -0.71681,-0.584193 -1.98219,-1.109304 -1.05336,-0.43713 -1.79454,-1.007154 -2.15272,-1.655599 -0.26254,-0.475295 -0.29076,-0.61106 -0.29076,-1.398667 0,-0.759241 0.0352,-0.943917 0.27148,-1.425115 0.63342,-1.2898783 2.1807,-1.9041866 4.13934,-1.6434123 0.80975,0.1078113 2.04759,0.4746453 2.23541,0.6624643 0.0641,0.06409 -0.24795,1.569929 -0.44265,2.136124 -0.0291,0.08474 -0.1843,0.05498 -0.55366,-0.106211 -0.99895,-0.435943 -2.31668,-0.604481 -2.78145,-0.355747 -0.23174,0.124026 -0.34703,0.483252 -0.2628,0.818858 0.0706,0.2811 0.36697,0.459965 1.75571,1.059424 1.7406,0.751341 2.34505,1.300613 2.62233,2.38294 0.21014,0.820248 0.11704,1.592655 -0.28582,2.371321 -0.37034,0.71581 -1.06393,1.237481 -1.94496,1.462856 -0.7263,0.185794 -2.20428,0.179557 -3.1053,-0.0131 z"
     id="path1074" />
  <path
     style="fill:#5b678b;stroke-width:0.0969196"
     d="m 98.712622,20.02473 c -0.664979,-0.236326 -1.269733,-0.869073 -1.516786,-1.586996 -0.215409,-0.625967 -0.238197,-2.164152 -0.04054,-2.736757 0.302983,-0.877751 1.007763,-1.554138 1.890815,-1.814641 0.438503,-0.129359 2.377889,-0.162971 2.792179,-0.04839 l 0.26653,0.07371 -3.6e-4,-0.607594 c -6.4e-4,-1.066621 -0.40839,-1.429556 -1.60754,-1.43087 -0.27133,-3.01e-4 -0.838315,0.0913 -1.259961,0.203559 -0.421647,0.112255 -0.853859,0.224117 -0.96047,0.248582 -0.174105,0.03995 -0.217615,-0.05983 -0.427381,-0.980137 -0.128448,-0.563541 -0.214738,-1.043423 -0.191756,-1.066405 0.130986,-0.130987 1.897559,-0.5557894 2.669028,-0.641813 1.82859,-0.2038993 3.34659,0.2543218 3.98075,1.201618 0.17181,0.256646 0.36327,0.627009 0.42547,0.823031 0.0717,0.225886 0.14081,1.722869 0.18878,4.087809 0.0416,2.052272 0.10603,3.851342 0.14312,3.997933 l 0.0674,0.266529 h -1.22623 -1.22624 l -0.18771,-0.437907 -0.18771,-0.437906 -0.46305,0.33092 c -0.66438,0.474789 -1.14497,0.650519 -1.916858,0.700892 -0.513652,0.03352 -0.807911,-0.0017 -1.211495,-0.145168 z m 3.125658,-1.934424 0.26653,-0.106921 v -1.299809 -1.299809 l -0.44423,-0.06662 c -0.50553,-0.07581 -1.13255,0.0065 -1.50638,0.197724 -0.645899,0.330404 -0.755438,1.992877 -0.166432,2.52592 0.339442,0.307193 1.153852,0.328983 1.850512,0.04951 z"
     id="path1113" />
  <path
     style="fill:#5b678b;stroke-width:0.0969196"
     d="m 91.657041,20.018417 c -2.026953,-0.550128 -3.305159,-1.932835 -3.901544,-4.220521 -0.262303,-1.006171 -0.359901,-3.181582 -0.193726,-4.318058 0.395662,-2.7059464 1.686685,-4.4899355 3.795954,-5.2454055 0.539342,-0.1931742 0.806038,-0.2219386 2.072778,-0.2235581 1.248341,-0.0016 1.553614,0.029511 2.160122,0.2201118 l 0.706327,0.2219704 -0.05488,0.3110875 c -0.287226,1.6283246 -0.41861,2.3118177 -0.450517,2.3437248 -0.02077,0.020773 -0.342439,-0.048615 -0.714812,-0.1541959 -0.965839,-0.2738488 -2.152174,-0.2257389 -2.812237,0.1140457 -0.611497,0.3147837 -1.14727,1.0086173 -1.417619,1.8358373 -0.318411,0.974282 -0.36309,2.905095 -0.09216,3.982593 0.26685,1.061262 0.733484,1.75268 1.455697,2.156926 0.724166,0.405339 1.772351,0.466938 2.861419,0.168158 0.417453,-0.114527 0.76751,-0.195867 0.777905,-0.180757 0.09204,0.133803 0.441587,2.534996 0.377831,2.595522 -0.04583,0.04351 -0.388626,0.174232 -0.761767,0.290492 -1.003098,0.312538 -2.850778,0.362032 -3.808774,0.102027 z"
     id="path1152" />
  <path
     style="fill:#5b678b;stroke-width:0.0969196"
     d="m 80.71889,20.113215 c -1.0203,-0.218095 -1.68248,-0.799555 -1.973497,-1.732929 -0.173128,-0.555268 -0.19205,-0.89665 -0.19205,-3.464875 v -2.84892 H 77.971826 77.390308 V 10.903456 9.7404207 h 0.581518 0.581517 V 8.3835462 7.0266717 h 1.405335 1.405334 v 1.3568745 1.3568745 h 1.066116 1.066115 v 1.1630353 1.163035 h -1.066115 -1.066116 l 3.59e-4,2.49568 c 3.39e-4,2.310018 0.01453,2.51892 0.190832,2.808068 0.106947,0.175401 0.298041,0.334778 0.435776,0.363448 0.134918,0.02808 0.343437,0.06997 0.463375,0.09308 0.119938,0.02311 0.403428,0.0072 0.629977,-0.03545 l 0.411909,-0.07747 v 1.138718 c 0,1.097179 -0.008,1.141069 -0.218069,1.20318 -0.368606,0.108962 -2.133023,0.148577 -2.559284,0.05746 z"
     id="path1191" />
  <path
     style="fill:#5b678b;stroke-width:0.0969196"
     d="m 72.05973,20.101326 c -0.684231,-0.133626 -1.583776,-0.62645 -2.032993,-1.113792 -0.446521,-0.484419 -0.869059,-1.334389 -1.079736,-2.171982 -0.199343,-0.792532 -0.171108,-3.075444 0.04795,-3.876784 0.621598,-2.273897 2.075157,-3.4789211 4.069553,-3.3737278 2.356548,0.1242947 3.649436,1.8847808 3.812212,5.1909708 l 0.05845,1.187265 H 74.147444 71.35972 l 0.06551,0.363448 c 0.113159,0.627771 0.439433,1.183695 0.856991,1.46019 0.547612,0.362612 1.745385,0.412013 2.733554,0.112744 1.086644,-0.329093 1.019197,-0.362552 1.273997,0.631987 0.122911,0.479752 0.224551,0.899669 0.225866,0.933149 0.0038,0.09794 -1.054315,0.462667 -1.790622,0.617196 -0.74044,0.155395 -1.977518,0.173653 -2.665289,0.03934 z m 2.229151,-6.140132 c 0,-0.840204 -0.446784,-1.916971 -0.890651,-2.146503 -0.958066,-0.495435 -1.798495,0.298351 -1.983627,1.873537 l -0.06,0.510495 h 1.467138 1.467139 z"
     id="path1230" />
  <path
     style="fill:#5b678b;stroke-width:0.0969196"
     d="M 60.623216,12.841848 V 5.6697971 h 1.405334 1.405334 v 4.2838468 c 0,2.5777061 0.03514,4.2471761 0.08824,4.1917731 0.04853,-0.05064 0.597869,-1.062481 1.220751,-2.248535 l 1.132514,-2.1564613 h 1.532871 1.532871 l -1.402309,2.4682803 -1.402309,2.46828 1.410895,2.635945 c 0.775993,1.44977 1.410896,2.650577 1.410896,2.66846 0,0.01788 -0.68947,0.03251 -1.532155,0.03251 h -1.532156 l -1.221453,-2.49568 -1.221454,-2.49568 -0.0086,2.49568 -0.0086,2.49568 H 62.02855 60.623216 Z"
     id="path1269" />
  <path
     style="fill:#5b678b;stroke-width:0.0969196"
     d="m 55.787376,20.060887 c -2.07185,-0.583006 -3.117301,-2.305223 -3.117301,-5.135267 0,-3.001415 1.271606,-4.848316 3.643802,-5.2923187 1.031206,-0.1930103 3.04741,0.1264042 3.05093,0.4833397 0.0029,0.290677 -0.322822,2.094484 -0.392755,2.175253 -0.03811,0.04401 -0.300696,0.0113 -0.583528,-0.07269 -1.65025,-0.490071 -2.686994,0.162353 -2.999942,1.887869 -0.271943,1.499424 0.220463,3.004134 1.123277,3.432547 0.442502,0.209981 1.357668,0.215188 2.023063,0.01151 0.264041,-0.08082 0.489327,-0.137648 0.500635,-0.126276 0.08413,0.08461 0.419946,2.243959 0.358107,2.302698 -0.388945,0.369448 -2.714169,0.584372 -3.606288,0.333335 z"
     id="path1308" />
</svg>
