<?xml version="1.0" encoding="UTF-8" standalone="no"?>
<svg
   width="96"
   height="29"
   version="1.1"
   id="svg11"
   sodipodi:docname="spotify.svg"
   inkscape:version="1.1.2 (0a00cf5339, 2022-02-04)"
   xmlns:inkscape="http://www.inkscape.org/namespaces/inkscape"
   xmlns:sodipodi="http://sodipodi.sourceforge.net/DTD/sodipodi-0.dtd"
   xmlns="http://www.w3.org/2000/svg"
   xmlns:svg="http://www.w3.org/2000/svg">
  <sodipodi:namedview
     id="namedview13"
     pagecolor="#ffffff"
     bordercolor="#666666"
     borderopacity="1.0"
     inkscape:pageshadow="2"
     inkscape:pageopacity="0.0"
     inkscape:pagecheckerboard="0"
     showgrid="false"
     inkscape:zoom="13.375"
     inkscape:cx="48"
     inkscape:cy="14.504673"
     inkscape:window-width="1920"
     inkscape:window-height="1018"
     inkscape:window-x="0"
     inkscape:window-y="0"
     inkscape:window-maximized="1"
     inkscape:current-layer="svg11" />
  <defs
     id="defs5">
    <filter
       id="a"
       x="0"
       y="0"
       width="1"
       height="1">
      <feColorMatrix
         in="SourceGraphic"
         values="0 0 0 0 0.353480 0 0 0 0 0.401652 0 0 0 0 0.540147 0 0 0 1.000000 0"
         id="feColorMatrix2" />
    </filter>
  </defs>
  <g
     filter="url(#a)"
     fill="none"
     fill-rule="evenodd"
     id="g9">
    <path
       d="M14.425.048C6.482.048.043 6.52.043 14.503c0 7.984 6.44 14.456 14.382 14.456 7.944 0 14.382-6.472 14.382-14.456C28.807 6.52 22.369.05 14.425.05V.048zm6.595 20.849a.893.893 0 01-1.233.298c-3.376-2.073-7.627-2.542-12.633-1.393a.897.897 0 01-1.073-.678.9.9 0 01.674-1.079c5.478-1.258 10.177-.716 13.968 1.612.423.261.557.815.297 1.24zm1.76-3.936a1.118 1.118 0 01-1.542.371c-3.865-2.388-9.758-3.08-14.33-1.685a1.122 1.122 0 01-1.4-.75 1.13 1.13 0 01.748-1.406c5.223-1.593 11.716-.822 16.155 1.92a1.13 1.13 0 01.37 1.55zm.152-4.099C18.297 10.095 10.649 9.84 6.224 11.19a1.344 1.344 0 01-1.678-.9 1.354 1.354 0 01.897-1.687c5.08-1.55 13.525-1.25 18.862 1.933.64.382.85 1.212.47 1.853a1.34 1.34 0 01-1.843.473zm16.24.53c-2.484-.595-2.926-1.013-2.926-1.89 0-.83.777-1.388 1.932-1.388 1.12 0 2.23.424 3.394 1.296a.16.16 0 00.122.03.16.16 0 00.108-.066l1.213-1.718a.164.164 0 00-.031-.222c-1.386-1.118-2.946-1.661-4.77-1.661-2.68 0-4.554 1.617-4.554 3.931 0 2.482 1.616 3.36 4.409 4.039 2.375.55 2.777 1.01 2.777 1.834 0 .913-.811 1.481-2.116 1.481-1.45 0-2.633-.492-3.955-1.641a.16.16 0 00-.23.017l-1.36 1.626a.165.165 0 00.015.228c1.539 1.38 3.431 2.11 5.475 2.11 2.888 0 4.755-1.587 4.755-4.043.005-2.073-1.23-3.221-4.254-3.96l-.005-.003zm10.794-2.461c-1.252 0-2.279.496-3.127 1.511V11.3a.163.163 0 00-.161-.164h-2.224a.163.163 0 00-.162.164v12.705c0 .09.072.164.162.164h2.224c.089 0 .161-.074.161-.164v-4.01c.848.955 1.875 1.422 3.127 1.422 2.327 0 4.684-1.8 4.684-5.242.003-3.442-2.353-5.243-4.682-5.243h-.002zm2.097 5.243c0 1.752-1.073 2.976-2.612 2.976-1.52 0-2.667-1.28-2.667-2.976 0-1.697 1.147-2.976 2.667-2.976 1.513 0 2.612 1.251 2.612 2.976zm8.623-5.243c-2.997 0-5.344 2.32-5.344 5.28 0 2.93 2.332 5.224 5.308 5.224 3.007 0 5.362-2.311 5.362-5.26 0-2.94-2.34-5.244-5.326-5.244zm0 8.236c-1.594 0-2.796-1.288-2.796-2.994 0-1.714 1.161-2.957 2.76-2.957 1.604 0 2.813 1.287 2.813 2.995 0 1.713-1.168 2.956-2.777 2.956zm11.724-8.032h-2.447V8.621a.163.163 0 00-.161-.164h-2.224a.164.164 0 00-.163.164v2.514h-1.069a.163.163 0 00-.161.164v1.92c0 .09.072.165.161.165h1.069v4.97c0 2.008.994 3.026 2.957 3.026.797 0 1.458-.166 2.081-.521a.16.16 0 00.083-.142v-1.83a.163.163 0 00-.235-.145 2.795 2.795 0 01-1.306.316c-.712 0-1.032-.326-1.032-1.054v-4.62h2.447c.09 0 .162-.073.162-.163V11.3a.158.158 0 00-.16-.164h-.002zm8.525.01v-.309c0-.908.347-1.313 1.124-1.313.463 0 .836.092 1.253.232a.163.163 0 00.213-.156V7.716a.162.162 0 00-.115-.157 6.063 6.063 0 00-1.848-.267c-2.052 0-3.14 1.163-3.14 3.36v.473h-1.067a.164.164 0 00-.163.164v1.93c0 .09.073.165.163.165h1.068v7.665c0 .091.074.164.163.164h2.222a.162.162 0 00.163-.164v-7.665h2.077l3.18 7.665c-.36.804-.716.965-1.2.965-.392 0-.806-.118-1.226-.35a.176.176 0 00-.13-.013.162.162 0 00-.095.088l-.754 1.662a.164.164 0 00.07.213c.787.428 1.496.61 2.374.61 1.641 0 2.55-.769 3.348-2.837l3.858-10.018a.16.16 0 00-.018-.152.158.158 0 00-.132-.072h-2.315a.163.163 0 00-.154.11l-2.372 6.807-2.597-6.811a.162.162 0 00-.15-.106h-3.8zm-4.942-.01h-2.224a.164.164 0 00-.163.164v9.75c0 .091.074.164.163.164h2.224c.09 0 .163-.073.163-.164v-9.75a.163.163 0 00-.163-.163zm-1.1-4.44c-.88 0-1.595.717-1.595 1.603A1.6 1.6 0 0074.894 9.9c.88 0 1.593-.717 1.593-1.603s-.714-1.602-1.593-1.602zm19.479 7.575c-.88 0-1.565-.71-1.565-1.573 0-.862.694-1.58 1.574-1.58.879 0 1.564.71 1.564 1.571 0 .863-.694 1.582-1.573 1.582zm.009-2.997c-.802 0-1.409.64-1.409 1.424 0 .784.603 1.416 1.4 1.416.802 0 1.408-.64 1.408-1.425 0-.784-.603-1.415-1.4-1.415zm.346 1.577l.444.623h-.375l-.398-.572h-.342v.572h-.313v-1.651h.732c.383 0 .634.196.634.526.001.271-.155.437-.38.502h-.002zm-.264-.745h-.407v.522h.407c.203 0 .325-.1.325-.261 0-.17-.122-.26-.325-.26z"
       fill="#1ED760"
       fill-rule="nonzero"
       id="path7" />
  </g>
  <path
     style="fill:#5b678b;stroke-width:0.07469"
     d="M 93.773334,12.622615 V 11.83837 h 0.415706 c 0.406634,0 0.686959,0.08933 0.796863,0.253924 0.117263,0.175617 0.05505,0.483793 -0.126488,0.626593 l -0.18365,0.144459 0.18365,0.248923 c 0.218937,0.296753 0.218592,0.294839 0.05294,0.293667 -0.07189,-5.08e-4 -0.20664,-0.118145 -0.299447,-0.261415 -0.130753,-0.20185 -0.219026,-0.260491 -0.392122,-0.260491 -0.205502,0 -0.223384,0.02093 -0.223384,0.261415 0,0.182576 -0.03379,0.261416 -0.112035,0.261416 -0.09247,0 -0.112035,-0.136932 -0.112035,-0.784246 z m 1.000283,-0.130707 c 0.13949,-0.222459 -0.03263,-0.388888 -0.429086,-0.414888 l -0.347127,-0.02276 v 0.306945 0.306945 l 0.347127,-0.02277 c 0.231392,-0.01517 0.374453,-0.06634 0.429086,-0.153472 z"
     id="path867" />
  <path
     style="fill:#5b678b;stroke-width:0.07469"
     d="m 93.810679,14.112623 -0.22407,-0.10909 0.22407,0.05405 c 0.287352,0.06932 0.832999,0.06932 1.120351,0 l 0.22407,-0.05405 -0.22407,0.10909 c -0.123239,0.06 -0.375318,0.10909 -0.560176,0.10909 -0.184857,0 -0.436936,-0.04909 -0.560175,-0.10909 z"
     id="path906" />
  <path
     style="fill:#5b678b;stroke-width:0.037345"
     d="m 93.31933,13.824068 c -0.363225,-0.331227 -0.557631,-0.897257 -0.470002,-1.368457 0.144582,-0.777448 0.761452,-1.308124 1.520595,-1.308124 0.343278,0 0.590156,0.07477 0.875079,0.265036 0.817116,0.545649 0.902657,1.749083 0.171804,2.417041 -0.15645,0.142987 -0.223776,0.181767 -0.286902,0.165259 l -0.08248,-0.02157 0.09118,-0.0574 c 0.176434,-0.111074 0.418659,-0.391189 0.509099,-0.588736 0.27466,-0.599937 0.152333,-1.267789 -0.31033,-1.694256 -0.37253,-0.343386 -0.889246,-0.456721 -1.383189,-0.303385 -0.32995,0.102428 -0.577999,0.28832 -0.759559,0.56923 -0.432487,0.669141 -0.229006,1.640088 0.421581,2.011654 l 0.18973,0.108358 -0.144437,-0.0072 c -0.115243,-0.0057 -0.184403,-0.04361 -0.34217,-0.18748 z"
     id="path945" />
  <path
     style="fill:#5b678b;stroke-width:0.037345"
     d="m 84.754513,24.180581 c -0.338897,-0.03293 -0.642893,-0.09454 -0.948123,-0.192148 -0.319302,-0.102111 -0.948647,-0.405485 -0.973039,-0.469051 -0.01116,-0.02908 0.160741,-0.450917 0.382004,-0.937405 0.313062,-0.688323 0.418821,-0.886924 0.476791,-0.895349 0.04097,-0.006 0.184302,0.03896 0.318512,0.09982 0.500909,0.227123 1.092719,0.295909 1.462336,0.169968 0.216833,-0.07388 0.501415,-0.367766 0.659631,-0.68119 l 0.115529,-0.228861 -1.596268,-3.84776 -1.596268,-3.847759 H 82.00047 80.945321 v 3.876413 c 0,2.965194 -0.01053,3.886947 -0.04481,3.921226 -0.06408,0.06408 -2.348407,0.06408 -2.412488,0 -0.03428,-0.03428 -0.04481,-0.956032 -0.04481,-3.921226 v -3.876413 h -0.571378 c -0.394613,0 -0.585243,-0.01386 -0.616193,-0.04481 -0.06388,-0.06388 -0.06388,-2.049847 0,-2.113728 0.03095,-0.03095 0.22158,-0.04481 0.616193,-0.04481 h 0.571378 V 10.70206 c 0,-1.9197919 0.797175,-3.0483483 2.352736,-3.3307564 0.774664,-0.140638 2.457106,0.03108 2.660833,0.2715779 0.05847,0.069025 0.06535,0.1762473 0.06535,1.0181726 0,1.041749 -0.01022,1.0935693 -0.208648,1.0582151 -0.05983,-0.01066 -0.243226,-0.057019 -0.407544,-0.1030198 -0.225963,-0.063258 -0.407956,-0.08481 -0.746901,-0.088449 -0.54247,-0.00582 -0.72352,0.050081 -0.946851,0.2923662 -0.188988,0.2050284 -0.263443,0.4451384 -0.29289,0.9445454 l -0.02257,0.382786 H 82.8094 c 1.110726,0 1.939947,0.01459 1.977715,0.03481 0.04261,0.0228 0.514565,1.214225 1.368398,3.454414 0.716847,1.880784 1.313828,3.419607 1.326622,3.419607 0.01279,0 0.556631,-1.53348 1.208525,-3.407733 0.662563,-1.904925 1.21198,-3.428319 1.245847,-3.454414 0.07802,-0.06011 2.327683,-0.06751 2.438844,-0.008 0.03973,0.02126 0.07224,0.07399 0.07224,0.117178 0,0.06542 -1.541157,4.100678 -3.556133,9.311125 -0.660545,1.708077 -0.954302,2.258845 -1.48391,2.782203 -0.477548,0.471914 -0.974468,0.701376 -1.692206,0.781408 -0.391251,0.04363 -0.533918,0.044 -0.960824,0.0025 z"
     id="path984" />
  <path
     style="fill:#5b678b;stroke-width:0.037345"
     d="m 73.670512,21.148482 c -0.06511,-0.06511 -0.06511,-9.891073 0,-9.956181 0.06408,-0.06408 2.348408,-0.06408 2.412488,0 0.06511,0.06511 0.06511,9.891073 0,9.956181 -0.06408,0.06408 -2.348407,0.06408 -2.412488,0 z"
     id="path1023" />
  <path
     style="fill:#5b678b;stroke-width:0.037345"
     d="M 74.434438,9.8061989 C 73.593152,9.5289892 73.142047,8.6699588 73.396992,7.8306091 73.568895,7.2646551 74.032215,6.8589774 74.647897,6.7353308 75.282334,6.6079175 76.022903,7.0099784 76.312986,7.6393212 76.693611,8.4650994 76.3,9.4438138 75.455604,9.7711994 75.163324,9.884521 74.718411,9.89977 74.434438,9.8061989 Z"
     id="path1062" />
  <path
     style="fill:#5b678b;stroke-width:0.037345"
     d="m 69.965852,21.339222 c -1.134513,-0.07756 -1.966027,-0.637462 -2.29652,-1.546364 -0.222756,-0.612612 -0.217981,-0.538554 -0.232985,-3.61313 l -0.01381,-2.828885 h -0.569436 c -0.393102,0 -0.583314,-0.01388 -0.614251,-0.04481 -0.03262,-0.03262 -0.04481,-0.316425 -0.04481,-1.042993 0,-0.857642 0.0083,-1.006441 0.05868,-1.056864 0.04811,-0.04811 0.159161,-0.05869 0.616193,-0.05869 h 0.557508 V 9.8648721 c 0,-1.1951487 0.0047,-1.2868297 0.06829,-1.3444205 0.06033,-0.054594 0.197872,-0.061806 1.178823,-0.061806 0.694099,0 1.137616,0.014496 1.182764,0.038659 0.0693,0.037089 0.07223,0.091673 0.07223,1.3444206 V 11.147487 H 71.1937 c 1.026475,0 1.273179,0.0097 1.307674,0.05123 0.03009,0.03626 0.03961,0.355427 0.03258,1.092342 l -0.0099,1.041112 -1.288403,0.01867 -1.288403,0.01867 -0.01068,2.278046 c -0.0067,1.436505 0.0038,2.388412 0.02844,2.576806 0.0777,0.593474 0.328831,0.808121 0.975876,0.83411 0.420297,0.01688 0.797027,-0.05247 1.18567,-0.218264 0.39625,-0.169041 0.378822,-0.213739 0.378822,0.971568 v 1.00594 l -0.308097,0.146535 c -0.668949,0.318162 -1.361065,0.434466 -2.231399,0.374965 z"
     id="path1101" />
  <path
     style="fill:#5b678b;stroke-width:0.037345"
     d="m 59.964057,21.378565 c -1.7399,-0.218954 -3.281186,-1.29309 -4.052118,-2.823956 -0.173425,-0.344375 -0.371111,-0.921286 -0.458673,-1.338557 -0.104583,-0.498377 -0.09736,-1.579254 0.01389,-2.080628 0.470531,-2.120387 1.998788,-3.622818 4.158834,-4.088555 0.445323,-0.09602 1.673988,-0.09602 2.119311,0 1.63753,0.353075 2.91775,1.304167 3.664303,2.72226 0.631271,1.199113 0.751577,2.736631 0.316908,4.050094 -0.602143,1.819527 -2.116481,3.129269 -4.051224,3.50388 -0.377391,0.07307 -1.326789,0.103842 -1.711236,0.05546 z m 1.330024,-2.260166 c 0.16448,-0.03329 0.439904,-0.131455 0.642627,-0.229031 0.299295,-0.144057 0.40495,-0.22109 0.675591,-0.492572 0.592119,-0.593956 0.855555,-1.26949 0.855555,-2.193919 0,-1.53567 -0.958984,-2.73863 -2.36387,-2.965262 -0.342999,-0.05533 -0.877166,-0.02996 -1.202579,0.05712 -0.936252,0.250533 -1.653339,1.001369 -1.928002,2.018741 -0.114818,0.425295 -0.117009,1.212116 -0.0046,1.663454 0.277941,1.116283 1.06673,1.916149 2.114278,2.143967 0.315155,0.06854 0.865716,0.06741 1.211031,-0.0025 z"
     id="path1140" />
  <path
     style="fill:#5b678b;stroke-width:0.037345"
     d="M 13.294826,28.900723 C 12.348458,28.806983 11.660474,28.689769 10.8674,28.487156 5.3819941,27.085755 1.1951122,22.509331 0.2652719,16.89862 0.11268535,15.977903 0.07797104,15.526721 0.07850407,14.471194 0.07904067,13.408598 0.12825049,12.835921 0.30085804,11.883556 1.0494186,7.7533623 3.6424282,4.0737851 7.2788901,1.981469 8.6668482,1.1828776 10.169258,0.6241096 11.745007,0.32045521 c 2.876028,-0.55422416 5.928219,-0.18576379 8.626699,1.04141459 2.261151,1.0282959 4.353222,2.766882 5.763562,4.7897255 1.408331,2.0199639 2.219521,4.1182617 2.552191,6.6017277 0.08463,0.631755 0.0968,2.701092 0.01955,3.323706 -0.228513,1.841835 -0.692656,3.40235 -1.46619,4.929542 -0.715465,1.412545 -1.473872,2.472891 -2.572917,3.597253 -2.276723,2.32917 -5.08436,3.746456 -8.348133,4.214112 -0.414377,0.05937 -0.766849,0.07727 -1.699198,0.08625 -0.647003,0.0062 -1.243589,0.0047 -1.325748,-0.0035 z M 20.5618,21.291472 c 0.21827,-0.07802 0.399071,-0.241706 0.504098,-0.456374 0.08424,-0.172179 0.09641,-0.238584 0.084,-0.458205 -0.02843,-0.503049 -0.222007,-0.6797 -1.413061,-1.289472 -1.669696,-0.854817 -3.365904,-1.354194 -5.489718,-1.616217 -0.68691,-0.08475 -3.165099,-0.09672 -3.958571,-0.01912 -1.3719142,0.134161 -3.4639259,0.499626 -3.7659724,0.657899 -0.1264928,0.06628 -0.3171787,0.268423 -0.3902016,0.413642 -0.2466,0.490408 0.026454,1.117954 0.5530475,1.271039 0.2442435,0.071 0.2344714,0.07196 1.1110098,-0.108516 0.7824307,-0.161097 1.6451603,-0.295248 2.4734437,-0.384608 0.756536,-0.08162 2.908149,-0.09372 3.585122,-0.02016 2.150562,0.233679 3.941038,0.790761 5.595382,1.740926 0.242974,0.13955 0.48665,0.267279 0.541503,0.28384 0.151599,0.04577 0.420159,0.03886 0.569914,-0.01467 z m 1.73699,-3.884784 c 0.408466,-0.190195 0.616083,-0.508634 0.642223,-0.985032 0.01585,-0.288846 0.0092,-0.32456 -0.101669,-0.549862 -0.142594,-0.289649 -0.277492,-0.405005 -0.861802,-0.736956 -1.725249,-0.980129 -3.725014,-1.695399 -5.863168,-2.097121 -2.981561,-0.560183 -6.091416,-0.501876 -8.8507685,0.165943 -0.9966137,0.241201 -1.2108352,0.319713 -1.4374492,0.526826 -0.6453256,0.589791 -0.4359657,1.625669 0.3871479,1.915544 0.255273,0.0899 0.500061,0.06958 1.0866899,-0.0902 2.8259049,-0.769718 6.0976509,-0.801736 9.1878299,-0.08992 1.549786,0.356992 3.165721,0.97186 4.351176,1.655635 0.604894,0.348905 0.668427,0.37289 0.989162,0.373411 0.217161,3.36e-4 0.322895,-0.01948 0.470628,-0.08827 z m 1.948146,-4.501908 c 0.268646,-0.143736 0.447012,-0.325716 0.595527,-0.607593 0.09464,-0.179628 0.104007,-0.232708 0.104007,-0.589525 0,-0.350684 -0.01068,-0.413828 -0.101027,-0.59752 C 24.651438,10.715716 24.294634,10.456541 23.2286,9.9357071 21.820937,9.2479628 20.096202,8.6691685 18.336403,8.2939616 14.213135,7.4148398 9.3461294,7.4879486 5.807411,8.4821637 5.2494876,8.6389145 5.0323813,8.7503726 4.8158418,8.9912166 4.4886875,9.3550907 4.387506,9.9392232 4.5704107,10.408117 c 0.1841782,0.472156 0.6543418,0.809895 1.1725114,0.842266 0.2319103,0.01449 0.3473759,-0.0045 0.8254612,-0.136054 3.5627667,-0.980032 8.5009477,-0.922174 12.3938157,0.145211 1.384936,0.379735 2.510367,0.823545 3.59419,1.417355 0.652882,0.357704 0.715861,0.378194 1.120351,0.364507 0.298154,-0.01009 0.362537,-0.02552 0.570196,-0.136622 z"
     id="path1179" />
  <path
     style="fill:#5b678b;stroke-width:0.037345"
     d="m 37.830501,21.338671 c -0.919603,-0.09957 -1.87083,-0.37389 -2.694747,-0.777138 -0.816102,-0.399424 -1.954708,-1.209078 -1.954708,-1.389977 0,-0.04637 0.267287,-0.398427 0.658531,-0.867393 0.64496,-0.773085 0.778147,-0.920058 0.833752,-0.920058 0.01515,0 0.182059,0.125449 0.370901,0.278775 0.939277,0.762629 1.857319,1.197841 2.842288,1.34743 0.469015,0.07123 1.197513,0.06951 1.560729,-0.0037 0.621093,-0.125164 1.10271,-0.453534 1.298815,-0.88554 0.09061,-0.199611 0.105828,-0.280898 0.106687,-0.569871 8.73e-4,-0.294072 -0.01225,-0.364143 -0.102947,-0.549511 -0.259795,-0.531004 -0.812163,-0.798754 -2.601869,-1.261207 -1.164344,-0.300862 -1.779014,-0.500441 -2.310419,-0.750175 -1.205534,-0.566543 -1.8554,-1.316461 -2.072286,-2.391332 -0.276184,-1.368746 0.107982,-2.6896758 1.039609,-3.5746307 0.610381,-0.5798019 1.344032,-0.9402296 2.306292,-1.1330331 0.542871,-0.1087726 1.648727,-0.1178516 2.287862,-0.018783 0.830647,0.1287533 1.593574,0.3750362 2.29634,0.7412895 0.401899,0.2094538 1.032693,0.6236135 1.22261,0.8027278 0.117388,0.1107115 0.123431,0.1270911 0.07803,0.211522 -0.02706,0.050335 -0.317508,0.4716105 -0.645431,0.9361695 -0.397239,0.562755 -0.618456,0.844652 -0.662835,0.844652 -0.03664,0 -0.255687,-0.126814 -0.486781,-0.281809 -0.689276,-0.462298 -1.409151,-0.782399 -2.100697,-0.934102 -0.431543,-0.09467 -1.142938,-0.112232 -1.51365,-0.03737 -0.578417,0.116799 -0.998408,0.384338 -1.213794,0.7732 -0.103971,0.18771 -0.110777,0.225236 -0.110777,0.610793 0,0.356685 0.01127,0.431904 0.08557,0.571052 0.267678,0.501306 0.888015,0.797832 2.603269,1.244383 1.490004,0.387909 2.294838,0.698123 2.963957,1.142423 1.00157,0.665049 1.501042,1.61907 1.498033,2.86133 -0.005,2.059634 -1.346459,3.529124 -3.584382,3.92645 -0.426931,0.0758 -1.52108,0.105055 -1.997958,0.05342 z"
     id="path1218" />
  <path
     style="fill:#5b678b;stroke-width:0.037345"
     d="m 44.354675,24.098739 c -0.06518,-0.06518 -0.06518,-12.841257 0,-12.906438 0.06408,-0.06408 2.348407,-0.06408 2.412488,0 0.03119,0.03119 0.04481,0.22988 0.04481,0.653538 0,0.334798 0.0042,0.608669 0.0093,0.608601 0.0051,-6.7e-5 0.168986,-0.156012 0.364114,-0.346545 0.792522,-0.773856 1.537826,-1.097791 2.614151,-1.136199 1.269509,-0.0453 2.372757,0.369261 3.273893,1.230219 0.740791,0.707761 1.191825,1.548624 1.437579,2.680074 0.07541,0.347165 0.08517,0.494882 0.08517,1.288403 0,0.984072 -0.04436,1.303131 -0.278834,2.005535 -0.603697,1.80847 -2.173526,3.070489 -3.976305,3.196635 -1.288363,0.09015 -2.320627,-0.265324 -3.194264,-1.099991 -0.157917,-0.150873 -0.297859,-0.274315 -0.310981,-0.274315 -0.01312,0 -0.02386,0.912525 -0.02386,2.027834 0,1.527411 -0.01106,2.038894 -0.04481,2.072649 -0.06408,0.06408 -2.348407,0.06408 -2.412488,0 z m 5.556938,-4.975498 c 1.060997,-0.192504 1.787168,-0.925551 2.079697,-2.099388 0.09189,-0.368744 0.09148,-1.274644 -7.62e-4,-1.667976 -0.205664,-0.876981 -0.704946,-1.561039 -1.380843,-1.891873 -0.418538,-0.204863 -0.680459,-0.266489 -1.146232,-0.269689 -1.215417,-0.0084 -2.177719,0.745115 -2.562631,2.006497 -0.09391,0.307765 -0.102214,0.38583 -0.103078,0.96958 -8.67e-4,0.586424 0.0068,0.659962 0.100458,0.96378 0.05577,0.180903 0.14553,0.416177 0.199471,0.52283 0.559203,1.105676 1.65479,1.676549 2.81392,1.466239 z"
     id="path1257" />
</svg>
